<svg width="133" height="235" viewBox="0 0 133 235" fill="none" xmlns="http://www.w3.org/2000/svg">
<g id="BloodVessels">
<path d="M1.43755 126.681C3.84301 123.287 9.73528 121.585 13.3324 124.07C15.3517 125.469 13.4428 128.445 11.5339 130.607C7.73811 135.952 -3.84781 134.271 1.29414 126.869L1.43755 126.681Z" fill="#CF2026"/>
<path d="M126.808 179.158C128.805 177.79 130.836 179.378 131.067 181.414C131.465 183.951 130.648 186.592 129.975 189.098C129.843 189.547 129.666 189.986 129.28 190.257C126.985 191.615 125.44 188.555 125.308 186.624C124.789 183.899 124.425 181.299 126.665 179.273L126.819 179.158H126.808Z" fill="#4167B0"/>
<path d="M48.0571 232.847C48.4874 232.252 49.4695 231.834 49.9881 231.135C50.5619 230.393 51.1357 229.537 52.1398 229.255C53.6073 228.702 55.1521 229.642 54.479 231.281C54.1259 232.419 53.8942 233.693 52.9011 234.476C51.9191 235.624 47.4834 234.779 47.9799 232.972L48.0571 232.847Z" fill="#CF2026"/>
<path d="M127.658 71.9268C129.291 70.7991 131.608 72.0939 132.403 73.7227C133.341 75.4768 133.208 77.847 131.763 79.2879C130.626 80.5095 128.221 80.238 126.665 79.2043C123.785 77.5337 125.672 73.7331 127.503 72.0416L127.658 71.9268Z" fill="#CF2026"/>
<path d="M30.1817 8.09954C34.3306 6.97188 39.1635 10.3757 39.8366 14.406C40.1235 15.9827 40.5097 20.5142 38.8546 19.4909C37.056 18.3633 26.088 10.4906 30.0382 8.16219L30.1817 8.09954Z" fill="#4167B0"/>
<path d="M34.2974 3.35922C36.5925 -0.900808 44.7248 -1.87185 41.878 4.98805C41.3594 6.25144 40.8518 7.4835 40.4545 8.56939C40.1456 9.40469 39.7263 10.0938 38.6449 9.92675C35.125 9.34204 32.7085 7.1285 34.2202 3.54716L34.3085 3.36965L34.2974 3.35922Z" fill="#CF2026"/>
<path d="M62.9864 101.684C64.4208 98.7712 67.5656 98.8443 68.8456 101.872C69.5407 103.898 70.0373 107.364 68.349 108.993C66.8815 109.912 64.5202 108.92 63.3616 107.96C62.6885 107.364 62.6995 106.414 62.7105 105.046C62.7326 103.908 62.6223 102.499 62.9312 101.851L62.9974 101.705L62.9864 101.684Z" fill="#4167B0"/>
<path d="M66.1642 102.457C68.4373 102.906 68.4594 107.364 65.756 107.02C63.7919 106.686 63.4719 102.488 65.9987 102.436L66.1642 102.457Z" fill="#1D3563"/>
<path d="M3.98649 127.119C5.96162 124.592 13.0125 124.217 10.5629 128.612C9.49255 130.325 6.40296 131.901 4.58232 131.692C1.87894 131.4 2.17688 128.821 3.80994 127.297L3.98649 127.119Z" fill="#821518"/>
<path d="M35.8754 4.10055C36.3609 2.83716 38.976 0.111998 39.8256 2.50304C40.4325 4.2154 40.1566 9.15411 37.6298 8.31881C36.1512 7.75498 35.3237 5.7085 35.8092 4.30937L35.8864 4.11098L35.8754 4.10055Z" fill="#821518"/>
<path d="M31.9913 10.5532C31.8478 11.66 37.3539 17.8308 38.0932 15.5024C38.4794 14.145 36.0188 10.3966 33.7899 9.64484C33.0285 9.33161 31.7927 9.30028 31.9582 10.3862L31.9913 10.5532Z" fill="#1D3563"/>
<path d="M129.479 73.2737C131.63 73.5348 132.281 76.2808 130.803 77.6486C129.898 78.4943 127.945 78.6301 127.194 77.753C125.694 76.239 127.106 73.1902 129.28 73.2528H129.479V73.2737Z" fill="#821518"/>
<path d="M49.6791 233.108C49.8667 232.127 52.7908 229.673 53.6294 231.156C54.2694 232.952 50.9701 234.862 49.7122 233.233L49.6902 233.108H49.6791Z" fill="#821518"/>
<path d="M127.857 180.735C130.494 180.443 129.821 188.576 128.055 188.681C126.246 188.054 125.793 181.528 127.724 180.777L127.857 180.735Z" fill="#1D3563"/>
</g>
</svg>
