<svg width="118" height="287" viewBox="0 0 118 287" fill="none" xmlns="http://www.w3.org/2000/svg">
<g id="Bone">
<path d="M100.19 169.1C99.9 167.82 99.61 166.38 99.3 164.81C93.04 174.05 85.97 184.77 85.97 184.77C84.51 180.34 82.29 174.97 78.83 169.29C73.34 160.29 66.94 154.13 62.16 150.24C59.48 145.49 55.29 136.59 54.42 124.64C53.41 110.71 56.89 105.5 59.21 100.4C59.21 100.4 74.59 94.7401 88.74 88.7901C88.1 83.3201 87.72 79.9401 87.72 79.9401L83.21 5.59006C83.21 5.59006 71.12 -1.98994 57.59 0.720064C44.06 3.43006 22.13 13.7101 17.8 16.1501C13.47 18.5901 0.75 36.8101 0.75 47.5501C0.75 47.5501 6.16 139.49 8.6 155.55C17.6 214.9 25.41 254.13 29.98 263.01C34.58 271.94 39.57 279.88 45.14 282.59C52.18 286.02 58.46 285.97 63 286.02C83.39 286.24 98.91 282.59 105.77 273.84C111.81 266.13 117.14 260.4 117.41 247.04C117.59 238.05 117.42 239.82 113.89 227.91C109.58 213.38 105.27 191.81 100.18 169.08L100.19 169.1Z" fill="#F6DAAA"/>
<path d="M21.17 14.4401C21.17 14.4401 30.64 10.0601 33.85 8.72006C36.78 7.49006 45.71 4.14006 45.71 4.14006C45.71 4.14006 42.86 99.0701 47.57 129.7C51.3 153.91 75.9 223.5 75.9 223.5L59.77 222.88L44.56 230.26C44.56 230.26 31.69 159.05 28.95 135.1C25.55 105.32 21.17 14.4301 21.17 14.4301V14.4401Z" fill="#F5E7C6"/>
<path d="M63.03 0.160065C63.03 0.160065 67.91 0.350068 69.77 0.710068C76.7 2.04007 77.13 2.73006 77.13 2.73006L77.63 45.7701C77.77 57.5401 78.18 92.86 78.18 92.86L70.31 95.2901C70.31 95.2901 68.12 67.9601 66.34 45.7401C65.45 34.5801 63.02 0.150055 63.02 0.150055L63.03 0.160065Z" fill="#F5E7C6"/>
<path d="M90.97 222.47L97.15 219.22L100.3 218.34L89.1 180.06L85.98 184.77L82.42 175.9L90.97 222.47Z" fill="#F5E7C6"/>
<path d="M88.55 223.51C92.61 222.15 95.95 218.92 100.3 218.34C106.41 217.78 112.67 221.86 114.27 227.96C115.76 234.11 118.09 241.22 117.5 247.29C117.28 250 116.95 252.83 116.39 255.47C115.66 259.65 114.34 263.75 111.81 267.61C109.25 271.19 105.13 275.47 101.58 277.81C97.99 280.01 93.52 282.03 89.48 283.55C85.83 284.78 81.98 284.99 78.12 285.5C72.7 286.14 67.97 286.87 62.64 286.17C60.68 285.98 58.28 285.71 56.01 285.46C48.62 285.16 44.45 282.25 39.1 277.12C36.34 274.63 34.87 271.14 33.67 267.5C32.7 264.56 31.46 261.53 31.16 258.52C30.98 256.58 31.33 254.67 31.78 252.77C32.92 248.63 33.81 243.85 35.51 239.91C37.69 235.58 43.37 231.43 47.23 227.98C52.68 223.77 60.96 221.96 67.77 222.52C74.48 222.88 81.76 225.19 88.4 223.55L88.57 223.5L88.55 223.51Z" fill="#E2C6A8"/>
<path d="M96.61 228.25C99.92 225.7 102.87 229.18 103.28 232.77C103.71 235.95 101.17 244.13 99.49 241.03C96.43 235.39 87.94 230.44 92.1 227.89L96.61 228.25Z" fill="#BE1E2D"/>
<path d="M80.88 229.17C84.09 228.93 88.45 228.47 89.5 232.37C90.05 234.5 90.56 238.76 88 239.6C87.26 239.81 86.43 239.71 85.65 239.51C80.88 238.09 73.68 232.81 75.06 229.33C76.43 228.06 78.95 229.36 80.69 229.16H80.89L80.88 229.17Z" fill="#BE1E2D"/>
<path d="M63.95 231.3C68.87 229.5 66.36 237.86 66.78 241.44C67.21 244.62 69.38 247.28 66.47 247.18C61.25 247.05 48.31 242.65 52.39 240.01L63.95 231.3Z" fill="#BE1E2D"/>
<path d="M48.42 244.56C48.58 244.34 48.8 244.26 49.06 244.25C49.96 244.25 51.43 244.6 53 245.07C55.72 245.9 58.52 246.99 61.15 248.1C63.44 249.16 65.4 249.56 65 251.3C64.42 253.42 62.65 255.33 61.31 256.99C60.66 257.73 60.15 258.2 59.59 258.31C56.18 258.31 47.35 251.99 47.58 248.92C47.86 247.7 48.01 245.69 48.36 244.66L48.42 244.56Z" fill="#BE1E2D"/>
<path d="M43.25 254.23C41.93 252.53 43.21 251.93 44.75 251.84C46.01 251.72 47.33 252.53 48.01 253.44C50.3 256.3 54.88 256.76 54.29 261.41C55.42 270.09 56.68 270.79 47.43 268.79C43.48 268.57 44.25 265.25 44.71 261.66C44.86 259.26 44.48 256.45 43.35 254.39L43.25 254.23Z" fill="#BE1E2D"/>
<path d="M70.58 234.56C73.89 232.01 83.15 240.72 85.61 242.88C88.07 245.04 74.34 244.65 72.32 245.28C67.33 246.82 66.34 237.31 70.43 234.66L70.58 234.56Z" fill="#BE1E2D"/>
<path d="M82.85 245.83C86.31 245.45 85.9 250.19 86.32 253.77C86.75 256.95 91 260.92 88.09 260.81C82.87 260.68 74.09 249.06 78.17 246.41L82.85 245.83Z" fill="#BE1E2D"/>
<path d="M76.57 268.93C79.84 269.85 83.9 268.28 87.17 267.18C89.1 266.66 91.03 265.7 92.76 266.62C95.39 269.14 82.95 274.82 78.57 275.99C70.84 277.31 65.68 268.36 76.4 268.91L76.56 268.93H76.57Z" fill="#BE1E2D"/>
<path d="M101.84 241.48C103.96 237.36 106.44 245 107.13 246.77C107.88 249.15 108.36 250.87 107.64 252.91C106.87 255.15 104.21 256.95 101.89 256C98.42 254.49 100.12 245.93 99.04 243.55C98.93 243.26 98.81 243.01 99.15 242.8C99.68 242.44 101.12 242.2 101.73 241.59L101.84 241.48Z" fill="#BE1E2D"/>
<path d="M97.26 255.06C100.57 252.51 100.8 258.66 101.22 262.24C101.65 265.42 96.16 271.76 95.71 268.88C94.98 264.24 89.57 264.23 90.18 260.54L97.26 255.06Z" fill="#BE1E2D"/>
<path d="M75.77 259.05C78.57 256.87 83.9 259.99 86.74 261.47C87.34 261.83 87.88 262.19 88.34 262.54C91.48 264.81 88.64 265.49 85.24 266.55C83.71 266.99 82.19 267.36 80.59 267.45C77.85 267.72 71.71 266.49 71.54 264.15C71.66 262.06 74.41 260.58 75.64 259.16L75.76 259.06L75.77 259.05Z" fill="#BE1E2D"/>
<path d="M68.22 248.75C75.84 244.35 76.62 251.25 78.03 254.46C79.15 257.02 73.54 259.86 70.63 259.75C65.41 259.62 63.98 251.49 68.07 248.85L68.22 248.75Z" fill="#BE1E2D"/>
<path d="M59.44 260.84C62.28 259.2 63.4 256.97 64.31 257.92C65.72 259.39 68.03 261.32 69.97 262.34C71.4 263.09 67.73 268.93 68.45 272.81C68.88 275.14 63.3 271.95 62.13 271.9C56.91 271.77 52.93 260.84 56.72 261.9L59.43 260.84H59.44Z" fill="#BE1E2D"/>
<path d="M91.37 236.53C94.68 233.98 98.07 243.74 98.49 247.32C98.92 250.5 94.8 256.93 91.9 256.83C86.68 256.7 85.02 243.65 89.11 241L91.38 236.52L91.37 236.53Z" fill="#BE1E2D"/>
</g>
</svg>
