<svg width="146" height="247" viewBox="0 0 146 247" fill="none" xmlns="http://www.w3.org/2000/svg">
<g id="Endomysium">
<path d="M130.252 106.462C117.28 107.695 117.247 126.173 121.801 134.999C123.469 138.623 125.763 142.342 129.352 144.504C137.627 148.41 144.069 142.216 145.144 134.215C146.45 128.408 146.22 122.266 143.498 116.845C140.886 111.236 136.913 106.462 130.449 106.473H130.252V106.462Z" fill="#FBEAD7"/>
<path d="M124.457 156.819C125.346 160.736 125.598 167.515 120.374 165.864C119.255 165.509 116.599 165.165 115.524 164.601C112.637 163.013 109.071 161.258 107.227 160.067C105.701 159.065 109.97 158.856 110.728 158.574C113.625 158.03 117.554 157.299 120.353 156.777C122.58 156.38 123.93 155.983 124.391 156.714L124.446 156.808L124.457 156.819Z" fill="#FBEAD7"/>
<path d="M82.2154 173.103C87.7138 172.121 94.7815 171.693 100.422 173.28C103.199 174.21 105.855 176.31 108.225 178.19C112.374 181.198 115.82 185.606 116.665 190.369C118.597 197.148 115.326 204.668 113.032 211.155C109.707 220.159 104.736 227.784 98.6994 235.451C96.3947 238.48 94.0681 241.101 91.6427 243.055C88.2735 245.708 83.697 247.504 79.3071 246.449C73.2381 244.914 66.774 240.913 63.5474 235.941C60.3538 230.374 62.2744 223.334 63.317 217.401C64.3486 212.471 65.7862 206.538 66.8618 201.754C69.781 191.769 69.0458 176.383 82.0398 173.155L82.2374 173.113L82.2154 173.103Z" fill="#FBEAD7"/>
<path d="M27.1662 29.1676C31.0732 29.2825 34.0254 35.6541 39.9188 48.3973C50.8606 72.0244 58.1807 87.8385 50.3119 100.133C46.4817 106.118 39.2384 108.228 30.722 109.356C21.5252 110.567 13.1515 114.923 8.42135 112.009C-12.4306 99.1507 12.9429 28.7498 27.1552 29.1676H27.1662Z" fill="#FBEAD7"/>
<path d="M62.9877 1.95777C56.359 4.27662 54.8994 12.1001 54.0763 18.2419C53.0337 28.1126 54.3616 36.427 57.5882 46.1202C61.6488 58.0905 65.5778 70.0398 70.2859 81.7176C72.0309 86.115 74.2807 91.8912 76.2452 96.7169C78.078 101.062 81.1399 108.896 87.0663 106.452C96.5484 102.389 102.793 91.4943 109.18 82.9292C116.072 73.3614 119.189 65.8931 117.181 54.5391C115.085 42.8509 109.082 32.0505 102.914 21.7724C98.5239 15.0561 92.9268 7.90111 85.6944 4.15127C79.1316 1.26839 70.2091 -0.507307 63.1743 1.8951L62.9987 1.95777H62.9877Z" fill="#FBEAD7"/>
<path d="M110.267 106.692C110.563 105.606 112.067 104.425 112.835 103.433C115.304 101.198 120.693 93.1655 123.842 94.3876C125.489 95.3903 126.235 97.8659 125.763 99.6729C125.313 101.313 123.656 102.232 122.021 103.036C119.683 104.248 115.974 105.251 113.021 106.191C112.198 106.4 110.772 107.016 110.278 106.734L110.256 106.692H110.267Z" fill="#FBEAD7"/>
<path d="M55.2944 119.352C52.5178 120.856 49.4668 120.135 43.31 121.754C33.2572 124.491 25.0481 127.666 17.2121 133.348C5.22773 140.503 2.73648 149.747 2.92305 162.605C3.1645 170.784 6.75322 178.367 9.22253 186.243C12.91 197.294 14.4136 203.446 24.7847 210.246C28.9331 213.202 33.6962 216.545 38.3165 218.55C42.5089 220.451 46.2402 219.386 49.0937 216.357C55.3053 209.515 55.876 200.553 57.5991 191.319C58.5209 185.063 59.7721 179.266 59.2123 173.636C58.6307 168.392 55.6785 164.559 52.7153 159.869C50.0046 155.43 45.8781 151.377 45.3623 146.666C44.9342 141.851 47.3706 135.709 50.0265 131.562C51.8483 128.209 62.6584 121.357 60.233 119.717L55.2834 119.341L55.2944 119.352Z" fill="#FBEAD7"/>
</g>
</svg>
