<svg width="156" height="264" viewBox="0 0 156 264" fill="none" xmlns="http://www.w3.org/2000/svg">
<g id="Muscle fiber bundle ">
<path d="M47.4113 30.5321C45.3261 24.0874 47.7515 9.57895 54.8412 4.52346C60.4054 0.55427 64.9379 0.0946781 77.1199 0.000670951C88.6214 -0.0828909 98.0925 7.65703 102.669 13.005C113.062 25.1632 117.32 34.3342 120.788 42.1263C123.203 47.5474 128.482 58.2642 130.292 63.8942C131.05 66.2443 132.597 71.0596 132.367 73.5038C132.059 76.8045 129.316 83.0612 127.615 85.9441C124.476 91.2816 113.358 106.302 113.358 106.302L96.1281 124.247L85.4387 129.49H82.1682L78.8978 124.247C78.8978 124.247 54.5339 52.582 47.4113 30.5321Z" fill="#F3D4B3"/>
<path d="M67.0561 117.489C59.3518 119.682 49.5185 123.714 41.3752 126.451C37.5121 127.829 33.7588 129.177 29.9725 130.524C27.1191 131.611 25.4948 131.861 22.7292 133.971C15.9468 139.204 17.9223 143.299 7.43043 143.069C6.70609 143.174 6.28904 143.309 5.80616 143.654C2.46984 145.764 1.35044 156.439 1.60285 163.04C1.67968 170.895 2.59057 179.356 3.68804 186.991C4.36848 191.483 5.50986 195.41 7.29873 199.787C15.6724 222.129 40.8594 236.314 44.8432 237.724C47.5979 239.27 52.2731 239.876 55.1814 238.591C56.4984 238.079 57.8263 237.222 58.1556 235.959C59.9444 229.117 71.1496 195.536 72.9714 181.121C73.18 177.465 72.1593 173.444 68.6255 171.595C60.8883 165.547 57.7824 162.351 59.0774 151.718C59.3079 147.174 60.4383 143.299 64.0051 139.998C66.3208 137.575 68.5047 134.744 71.7752 133.459C74.5079 132.258 77.6138 132.122 78.0966 130.347C78.4808 128.759 77.6686 127.161 77.054 125.646C75.7371 121.855 70.8533 117.907 67.1439 117.468H67.067L67.0561 117.489Z" fill="#F3D4B3"/>
<path d="M88.0617 176.337C96.2049 174.06 107.97 174.666 115.707 178.082C121.096 180.756 124.179 185.759 126.671 190.877C129.755 196.873 130.841 204.362 129.217 210.984C127.977 216.353 126.418 219.413 123.938 224.312C121.304 229.483 116.717 238.591 112.985 244.179C109.967 248.712 105.83 252.274 102.043 256.285C98.2791 260.369 94.5806 263.325 89.2689 263.795C79.4465 265.571 62.6442 255.47 59.9335 246.383C59.0445 242.424 60.4383 238.037 61.3163 233.702C62.4686 228.542 63.4673 223.508 64.7843 218.525C66.2769 212.77 69.8985 198.774 72.1044 190.282C73.0043 186.866 73.3994 184.15 75.9785 182.552C79.5892 180.108 83.7047 177.831 87.8751 176.389L88.0836 176.316L88.0617 176.337Z" fill="#F3D4B3"/>
<path d="M111.218 168.012C109.44 168.67 89.3348 171.49 91.5626 173.653C93.8344 174.781 97.917 174.144 100.683 174.321C107.772 174.509 115.542 175.345 120.953 180.139C124.673 182.51 130.655 190.699 134.573 184.85C136.416 180.996 137.163 175.752 138.161 171.417C138.447 168.869 140.126 163.782 138.282 163.082C136.043 162.863 134.101 163.709 131.686 164.043C125.398 165.265 117.243 166.832 111.372 167.991L111.24 168.012H111.218Z" fill="#F3D4B3"/>
<path d="M100.496 123.004C103.02 118.899 107.926 114.366 111.174 110.407C115.125 105.968 117.617 103.179 121.381 98.9797C123.85 96.358 125.332 91.8143 128.251 89.767C131.181 87.8451 134.638 89.3388 136.669 92.2948C138.995 95.9506 140.038 102.938 139.116 107.305C138.479 109.697 139.116 108.6 134.693 109.707C132.213 110.323 128.01 112.35 125.606 113.342C119.888 115.703 113.446 118.366 107.893 120.654C103.306 122.523 100.386 123.881 100.485 123.046V123.004H100.496Z" fill="#F3D4B3"/>
<path d="M12.1605 131.078C12.1605 131.078 9.49366 129.083 6.59634 124.936C4.51114 121.959 2.30523 117.875 0.878521 112.611C-3.2809 97.3399 8.61569 61.0009 9.78998 56.0603C10.7777 51.9136 16.9236 34.1984 24.4412 29.2996C31.9699 24.4008 30.9712 24.7768 32.7601 24.9649C34.549 25.1529 36.3269 24.5888 38.1048 25.7169C39.8827 26.845 42.8568 30.4277 43.8445 33.0704C44.8322 35.713 48.9917 43.8185 49.9794 46.4507C50.9671 49.0933 56.7179 65.4924 57.9031 69.4407C59.0884 73.3994 64.6526 92.3262 65.6293 97.1519C66.6171 102.051 66.8146 111.472 66.6171 114.679C66.4195 117.886 21.6646 134.473 12.1605 131.078Z" fill="#F3D4B3"/>
<path d="M138.908 109.968C120.876 109.383 117.178 129.971 122.303 142.265C132.389 166.435 151.024 164.753 155.04 143.257C157.433 130.462 154.975 111.88 139.105 109.989H138.908V109.968Z" fill="#F3D4B3"/>
</g>
</svg>
