<svg width="172" height="243" viewBox="0 0 172 243" fill="none" xmlns="http://www.w3.org/2000/svg">
<g id="Muscle Fibers">
<path d="M11.0527 45.1231C11.8649 45.2798 13.983 46.178 14.9159 46.5436C16.1121 47.1494 17.3413 48.5804 17.5937 49.7399C17.5608 51.3171 16.1889 53.2703 14.4439 53.3644C12.3478 53.6255 10.3284 52.393 9.71382 50.4919C8.97852 48.8311 8.91268 45.7185 10.921 45.1231H11.0527Z" fill="#E2C6A8"/>
<path d="M11.0527 46.7106C11.5137 46.5644 12.4575 46.9509 13.0831 47.0449C13.8184 47.2642 14.85 47.2642 15.2341 47.8283C15.8487 48.7892 15.9145 49.7188 15.8816 50.9932C15.9036 51.5781 15.7499 52.0795 15.0695 52.1735C14.4659 52.2988 13.6977 52.5077 13.2696 52.4555C12.5343 52.3197 12.0075 51.5154 11.4259 51.0141C10.8113 50.3769 10.3394 49.3428 10.1748 48.5594C10.1418 47.9954 10.5808 47.2224 10.965 46.7733L11.0637 46.7106H11.0527Z" fill="#F4868E"/>
<path d="M24.42 70.8706C25.2321 71.0272 27.3503 71.9255 28.2831 72.2911C29.4794 72.8969 30.7085 74.3279 30.961 75.4873C30.928 77.0646 29.5562 79.0178 27.8112 79.1118C25.7151 79.373 23.6957 78.1404 23.0811 76.2394C22.3458 74.5786 22.2799 71.4659 24.2883 70.8706H24.42Z" fill="#E2C6A8"/>
<path d="M24.42 72.4583C24.881 72.312 25.8248 72.6985 26.4503 72.7925C27.1857 73.0119 28.2173 73.0119 28.6014 73.5759C29.216 74.5369 29.2818 75.4665 29.2489 76.7408C29.2709 77.3257 29.1172 77.8271 28.4368 77.9211C27.8332 78.0465 27.0649 78.2554 26.6369 78.2031C25.9016 78.0674 25.3748 77.2631 24.7932 76.7617C24.1786 76.1245 23.7067 75.0905 23.542 74.3071C23.5091 73.743 23.9481 72.9701 24.3322 72.5209L24.431 72.4583H24.42Z" fill="#F4868E"/>
<path d="M12.2271 80.6368C13.0392 80.7935 15.1573 81.6918 16.0902 82.0574C17.2864 82.6632 18.5156 84.0942 18.768 85.2536C18.7351 86.8308 17.3632 88.7841 15.6183 88.8781C13.5221 89.1392 11.5028 87.9067 10.8882 86.0056C10.1529 84.3449 10.087 81.2322 12.0954 80.6368H12.2271Z" fill="#E2C6A8"/>
<path d="M12.2271 82.2246C12.688 82.0784 13.6319 82.4649 14.2574 82.5589C14.9927 82.7782 16.0244 82.7783 16.4085 83.3423C17.0231 84.3033 17.0889 85.2329 17.056 86.5072C17.0779 87.0921 16.9243 87.5935 16.2439 87.6875C15.6402 87.8128 14.872 88.0217 14.444 87.9695C13.7087 87.8337 13.1819 87.0294 12.6002 86.5281C11.9857 85.8909 11.5138 84.8568 11.3491 84.0735C11.3162 83.5094 11.7552 82.7365 12.1393 82.2873L12.2381 82.2246H12.2271Z" fill="#F4868E"/>
<path d="M44.5037 81.4097C45.3158 81.5664 47.4339 82.4647 48.3667 82.8303C49.563 83.4361 50.7922 84.8671 51.0446 86.0265C51.0117 87.6038 49.6398 89.557 47.8948 89.651C45.7987 89.9122 43.7793 88.6796 43.1647 86.7786C42.4294 85.1178 42.3636 82.0051 44.372 81.4097H44.5037Z" fill="#E2C6A8"/>
<path d="M44.5037 82.9976C44.9647 82.8514 45.9085 83.2378 46.5341 83.3318C47.2694 83.5512 48.301 83.5512 48.6851 84.1152C49.2997 85.0762 49.3655 86.0058 49.3326 87.2801C49.3546 87.8651 49.2009 88.3664 48.5205 88.4604C47.9169 88.5858 47.1486 88.7947 46.7206 88.7425C45.9853 88.6067 45.4585 87.8024 44.8769 87.301C44.2623 86.6639 43.7904 85.6298 43.6257 84.8464C43.5928 84.2823 44.0318 83.5094 44.4159 83.0603L44.5147 82.9976H44.5037Z" fill="#F4868E"/>
<path d="M26.4393 40.1929C28.0965 39.3468 30.3573 39.1693 31.9157 40.1616C34.5057 41.7701 32.8156 44.4754 30.1927 45.3737C25.704 47.3061 21.5117 43.1489 26.2528 40.2869L26.4503 40.1824L26.4393 40.1929Z" fill="#E2C6A8"/>
<path d="M29.4025 40.6733C31.817 40.9031 32.2889 42.2819 30.0281 43.7233C29.0294 44.653 28.1953 44.8096 26.6589 44.5381C24.8261 44.3918 24.3871 42.6788 25.9455 41.8014C26.9332 41.0285 27.9319 40.4644 29.194 40.6629L29.4025 40.6838V40.6733Z" fill="#F4868E"/>
<path d="M26.0113 56.4143C27.6685 55.5682 29.9292 55.3906 31.4876 56.3829C34.0777 57.9915 32.3876 60.6968 29.7646 61.5951C25.276 63.5275 21.0836 59.3703 25.8247 56.5083L26.0223 56.4038L26.0113 56.4143Z" fill="#E2C6A8"/>
<path d="M28.9854 56.8948C31.3999 57.1246 31.8718 58.5034 29.611 59.9448C28.6123 60.8744 27.7782 61.0311 26.2418 60.7595C24.409 60.6133 23.97 58.9003 25.5284 58.0229C26.5161 57.2499 27.5148 56.6859 28.7769 56.8843L28.9854 56.9052V56.8948Z" fill="#F4868E"/>
<path d="M38.1274 64.2482C39.7846 63.4021 42.0454 63.2245 43.6038 64.2168C46.1938 65.8254 44.5037 68.5307 41.8808 69.429C37.3921 71.3614 33.1998 67.2042 37.9408 64.3422L38.1384 64.2377L38.1274 64.2482Z" fill="#E2C6A8"/>
<path d="M41.0906 64.7286C43.5051 64.9583 43.977 66.3371 41.7162 67.7786C40.7175 68.7082 39.8834 68.8649 38.3469 68.5933C36.5142 68.4471 36.0752 66.734 37.6336 65.8566C38.6213 65.0837 39.62 64.5197 40.8821 64.7181L41.0906 64.739V64.7286Z" fill="#F4868E"/>
<path d="M3.57902 69.4501C5.2362 68.604 7.49698 68.4264 9.05539 69.4187C11.6454 71.0273 9.95534 73.7326 7.33238 74.6309C2.84373 76.5633 -1.34861 72.4061 3.39247 69.5441L3.59 69.4396L3.57902 69.4501Z" fill="#E2C6A8"/>
<path d="M6.54227 69.9305C8.9567 70.1603 9.42862 71.5391 7.16783 72.9805C6.16913 73.9101 5.33505 74.0668 3.79859 73.7952C1.96581 73.649 1.52683 71.936 3.08524 71.0586C4.07296 70.2856 5.07165 69.7216 6.33374 69.92L6.54227 69.9409V69.9305Z" fill="#F4868E"/>
<path d="M16.145 54.2626C18.1973 53.3538 21.6653 54.367 22.9713 56.1949C24.9797 60.4148 18.5595 60.3521 15.7938 60.2686C13.7964 60.2163 12.2051 58.4511 13.8513 56.6023C14.4549 55.8293 15.1573 54.7744 15.9804 54.3566L16.145 54.273V54.2626Z" fill="#E2C6A8"/>
<path d="M14.7842 57.908C15.1354 56.6441 16.1671 55.3384 17.6377 55.234C19.7448 55.0146 22.269 56.571 20.8313 58.5556C20.0192 59.3285 18.4937 59.3703 17.2535 59.5165C15.9476 59.6628 14.3014 59.6837 14.7294 58.096L14.7733 57.9184L14.7842 57.908Z" fill="#F4868E"/>
<path d="M16.9133 70.4631C17.8681 70.7347 19.3716 71.6226 19.9533 72.4895C20.6008 73.6594 21.38 75.3515 20.6447 76.5527C19.657 78.694 17.3303 80.3234 14.8391 79.4983C11.5576 78.9864 10.2955 75.2784 11.832 72.7506C12.2271 71.9464 13.0282 71.6643 14.2684 71.1839C15.0915 70.8809 16.178 70.3587 16.7486 70.4422L16.9133 70.4631Z" fill="#E2C6A8"/>
<path d="M14.1586 72.5941C15.4646 72.3747 17.9887 72.5419 18.9874 73.5446C19.3825 74.1504 19.6898 74.8711 19.2837 75.5501C18.8118 76.5633 18.0436 77.2631 16.8583 77.5138C16.156 77.7018 15.3109 77.7227 14.5536 77.6182C13.3245 77.2422 12.3258 75.4874 12.5672 74.2967C12.666 73.67 13.3355 72.991 13.983 72.6568L14.1476 72.5941H14.1586Z" fill="#F4868E"/>
<path d="M9.90045 58.942C10.8553 59.2136 12.3588 60.1015 12.9404 60.9684C13.5879 62.1383 14.3672 63.8304 13.6319 65.0316C12.6441 67.1729 10.3175 68.8023 7.82622 67.9772C4.54478 67.4653 3.2827 63.7573 4.81916 61.2295C5.21425 60.4253 6.0154 60.1432 7.25554 59.6628C8.07865 59.3598 9.16516 58.8376 9.73584 58.9211L9.90045 58.942Z" fill="#E2C6A8"/>
<path d="M7.1458 61.0625C8.45179 60.8432 10.976 61.0103 11.9747 62.0131C12.3698 62.6189 12.6771 63.3396 12.271 64.0186C11.7991 65.0317 11.0308 65.7316 9.84557 65.9822C9.14319 66.1703 8.29816 66.1912 7.5409 66.0867C6.31174 65.7107 5.31304 63.9559 5.55448 62.7651C5.65326 62.1384 6.32269 61.4595 6.9702 61.1252L7.13481 61.0625H7.1458Z" fill="#F4868E"/>
<path d="M34.0448 45.7289C34.9996 46.0004 36.5032 46.8883 37.0848 47.7552C37.7323 48.9251 38.5115 50.6172 37.7762 51.8184C36.7885 53.9597 34.4619 55.5892 31.9706 54.764C28.6892 54.2522 27.4271 50.5441 28.9635 48.0164C29.3586 47.2121 30.1598 46.93 31.3999 46.4496C32.223 46.1467 33.3095 45.6244 33.8802 45.708L34.0448 45.7289Z" fill="#E2C6A8"/>
<path d="M31.3011 47.8492C32.6071 47.6298 35.1313 47.797 36.13 48.7997C36.5251 49.4055 36.8323 50.1263 36.4263 50.8052C35.9544 51.8184 35.1861 52.5182 34.0009 52.7689C33.2985 52.9569 32.4534 52.9778 31.6962 52.8734C30.467 52.4973 29.4683 50.7425 29.7098 49.5518C29.8085 48.9251 30.478 48.2461 31.1255 47.9119L31.2901 47.8492H31.3011Z" fill="#F4868E"/>
<path d="M24.6504 30.2386C25.6052 30.5102 27.1088 31.398 27.6904 32.265C28.3379 33.4349 29.1171 35.127 28.3818 36.3282C27.3941 38.4695 25.0675 40.0989 22.5762 39.2738C19.2948 38.7619 18.0327 35.0539 19.5691 32.5261C19.9642 31.7218 20.7654 31.4398 22.0055 30.9593C22.8286 30.6564 23.9151 30.1342 24.4858 30.2177L24.6504 30.2386Z" fill="#E2C6A8"/>
<path d="M21.8959 32.3694C23.2019 32.1501 25.726 32.3172 26.7247 33.32C27.1198 33.9258 27.4271 34.6465 27.0211 35.3254C26.5492 36.3386 25.7809 37.0385 24.5956 37.2892C23.8933 37.4772 23.0482 37.4981 22.291 37.3936C21.0618 37.0176 20.0631 35.2628 20.3045 34.072C20.4033 33.4453 21.0728 32.7664 21.7203 32.4321L21.8849 32.3694H21.8959Z" fill="#F4868E"/>
<path d="M28.4587 63.2038C31.1255 63.3709 34.1765 63.0366 34.2094 65.0839C34.4728 66.8491 32.9364 71.2048 30.4122 71.257C25.693 70.8079 24.0578 61.6474 28.2611 63.2038C28.327 63.2038 28.3928 63.2038 28.4587 63.2038Z" fill="#E2C6A8"/>
<path d="M28.4367 64.7705C32.651 62.9739 34.0667 66.6819 31.1804 69.6171C28.0087 71.0689 26.0442 65.4807 28.294 64.8436C28.3379 64.8227 28.3928 64.8018 28.4367 64.7705Z" fill="#F4868E"/>
<path d="M7.39824 101.224C10.0651 101.392 13.1161 101.057 13.149 103.105C13.4124 104.87 11.8759 109.225 9.35174 109.278C4.63261 108.829 2.99739 99.6681 7.2007 101.224C7.26655 101.224 7.33239 101.224 7.39824 101.224Z" fill="#E2C6A8"/>
<path d="M7.36527 102.791C11.5796 100.995 12.9953 104.703 10.1089 107.638C6.93726 109.09 4.97278 103.501 7.22259 102.864C7.26649 102.843 7.32137 102.823 7.36527 102.791Z" fill="#F4868E"/>
<path d="M17.9668 61.8564C20.3374 61.0626 23.3444 62.8382 23.5859 65.2198C23.8712 67.2566 21.9945 69.753 19.7557 69.7112C15.4097 69.8157 13.2148 63.4023 17.7693 61.9191L17.9668 61.8564Z" fill="#E2C6A8"/>
<path d="M17.9339 63.423C21.786 61.0415 23.2566 66.5566 20.4581 68.1547C17.5937 69.1679 15.5743 65.345 17.7912 63.5379L17.9339 63.423Z" fill="#F4868E"/>
<path d="M36.7555 55.0669C39.1261 54.2731 42.1331 56.0488 42.3746 58.4303C42.6599 60.4671 40.7833 62.9635 38.5444 62.9217C34.1984 63.0262 32.0035 56.6128 36.558 55.1296L36.7555 55.0669Z" fill="#E2C6A8"/>
<path d="M36.7226 56.6441C40.5747 54.2626 42.0453 59.7777 39.2468 61.3758C36.3824 62.389 34.363 58.5661 36.5799 56.759L36.7226 56.6441Z" fill="#F4868E"/>
<path d="M15.2451 38.1143C17.6157 37.3204 20.6227 39.0961 20.8642 41.4776C21.1495 43.5144 19.2729 46.0108 17.034 45.9691C12.688 46.0735 10.4931 39.6601 15.0476 38.1769L15.2451 38.1143Z" fill="#E2C6A8"/>
<path d="M14.9158 39.6913C18.768 37.3098 20.2386 42.8249 17.44 44.423C14.5756 45.4362 12.5563 41.6132 14.7732 39.8062L14.9158 39.6913Z" fill="#F4868E"/>
<path d="M20.9629 46.0631C23.3334 45.2693 26.3405 47.045 26.582 49.4265C26.8673 51.4633 24.9906 53.9597 22.7518 53.918C18.4058 54.0224 16.2109 47.609 20.7654 46.1258L20.9629 46.0631Z" fill="#E2C6A8"/>
<path d="M20.941 47.6404C24.7931 45.2589 26.2637 50.7739 23.4651 52.3721C20.6007 53.3853 18.5814 49.5623 20.7983 47.7553L20.941 47.6404Z" fill="#F4868E"/>
<path d="M3.51315 76.5945C5.88369 75.8007 8.89075 77.5764 9.1322 79.9579C9.41754 81.9947 7.54088 84.4911 5.30203 84.4493C0.956047 84.5538 -1.23889 78.1404 3.31561 76.6572L3.51315 76.5945Z" fill="#E2C6A8"/>
<path d="M3.48025 78.1717C7.33237 75.7902 8.80297 81.3053 6.00442 82.9034C3.14002 83.9166 1.12068 80.0937 3.33757 78.2866L3.48025 78.1717Z" fill="#F4868E"/>
<path d="M19.7887 88.7423C22.1593 87.9485 25.1663 89.7242 25.4078 92.1057C25.6931 94.1425 23.8164 96.6389 21.5776 96.5971C17.2316 96.7016 15.0366 90.2882 19.5912 88.805L19.7887 88.7423Z" fill="#E2C6A8"/>
<path d="M19.7557 90.3196C23.6078 87.938 25.0785 93.4531 22.2799 95.0512C19.4155 96.0644 17.3962 92.2415 19.6131 90.4345L19.7557 90.3196Z" fill="#F4868E"/>
<path d="M24.1456 80.689C26.5161 79.8952 29.5232 81.6709 29.7647 84.0524C30.05 86.0892 28.1733 88.5856 25.9345 88.5438C21.5885 88.6483 19.3935 82.2349 23.9481 80.7517L24.1456 80.689Z" fill="#E2C6A8"/>
<path d="M24.1127 82.2662C27.9648 79.8846 29.4354 85.3997 26.6369 86.9979C23.7725 88.011 21.7531 84.1881 23.97 82.3811L24.1127 82.2662Z" fill="#F4868E"/>
<path d="M34.7582 70.9331C37.1287 70.1393 40.1358 71.915 40.3772 74.2965C40.6626 76.3333 38.7859 78.8297 36.5471 78.788C32.2011 78.8924 30.0061 72.479 34.5606 70.9958L34.7582 70.9331Z" fill="#E2C6A8"/>
<path d="M34.7252 72.5104C38.5774 70.1289 40.048 75.6439 37.2494 77.2421C34.385 78.2553 32.3657 74.4323 34.5826 72.6253L34.7252 72.5104Z" fill="#F4868E"/>
<path d="M3.80948 86.2251C4.62161 86.3817 6.73975 87.28 7.6726 87.6456C8.86885 88.2514 10.098 89.6824 10.3504 90.8419C10.3175 92.4191 8.94568 94.3723 7.2007 94.4663C5.10453 94.7275 3.08515 93.4949 2.47056 91.5939C1.73526 89.9331 1.66942 86.8204 3.67779 86.2251H3.80948Z" fill="#E2C6A8"/>
<path d="M3.82042 87.8128C4.28135 87.6665 5.22519 88.053 5.85075 88.147C6.58605 88.3663 7.61767 88.3663 8.00178 88.9304C8.61636 89.8914 8.68221 90.821 8.64928 92.0953C8.67123 92.6802 8.5176 93.1816 7.83717 93.2756C7.23356 93.4009 6.46531 93.6099 6.0373 93.5576C5.30199 93.4218 4.77521 92.6176 4.19355 92.1162C3.57897 91.479 3.10707 90.4449 2.94245 89.6616C2.90953 89.0975 3.34852 88.3246 3.73263 87.8754L3.8314 87.8128H3.82042Z" fill="#F4868E"/>
<path d="M18.1205 99.6261C19.7777 98.7801 22.0385 98.6025 23.5969 99.5948C26.1869 101.203 24.4969 103.909 21.8739 104.807C17.3852 106.739 13.1929 102.582 17.934 99.7201L18.1315 99.6157L18.1205 99.6261Z" fill="#E2C6A8"/>
<path d="M21.0947 100.107C23.5091 100.336 23.981 101.715 21.7202 103.157C20.7215 104.086 19.8874 104.243 18.351 103.971C16.5182 103.825 16.0792 102.112 17.6376 101.235C18.6253 100.462 19.6241 99.8977 20.8862 100.096L21.0947 100.117V100.107Z" fill="#F4868E"/>
<path d="M42.8466 91.1342C43.8014 91.4058 45.3049 92.2936 45.8866 93.1606C46.5341 94.3304 47.3133 96.0226 46.578 97.2238C45.5902 99.365 43.2636 100.995 40.7724 100.169C37.4909 99.6575 36.2288 95.9494 37.7653 93.4217C38.1604 92.6174 38.9615 92.3354 40.2017 91.8549C41.0248 91.552 42.1113 91.0297 42.682 91.1133L42.8466 91.1342Z" fill="#E2C6A8"/>
<path d="M40.0919 93.2652C41.3979 93.0458 43.9221 93.213 44.9208 94.2157C45.3159 94.8215 45.6231 95.5423 45.2171 96.2212C44.7452 97.2344 43.9769 97.9342 42.7917 98.1849C42.0893 98.3729 41.2442 98.3938 40.487 98.2894C39.2578 97.9133 38.2591 96.1585 38.5006 94.9678C38.5993 94.341 39.2688 93.6621 39.9163 93.3279L40.0809 93.2652H40.0919Z" fill="#F4868E"/>
<path d="M37.9628 79.7491C38.9176 80.0207 40.4211 80.9085 41.0028 81.7755C41.6503 82.9453 42.4295 84.6375 41.6942 85.8387C40.7065 87.9799 38.3798 89.6094 35.8886 88.7842C32.6071 88.2724 31.345 84.5643 32.8815 82.0366C33.2766 81.2323 34.0777 80.9503 35.3179 80.4698C36.141 80.1669 37.2275 79.6446 37.7981 79.7282L37.9628 79.7491Z" fill="#E2C6A8"/>
<path d="M35.2191 81.8694C36.5251 81.65 39.0493 81.8172 40.048 82.8199C40.4431 83.4257 40.7504 84.1464 40.3443 84.8254C39.8724 85.8386 39.1042 86.5384 37.9189 86.7891C37.2165 86.9771 36.3714 86.998 35.6142 86.8935C34.385 86.5175 33.3863 84.7627 33.6278 83.572C33.7265 82.9452 34.396 82.2663 35.0435 81.932L35.2081 81.8694H35.2191Z" fill="#F4868E"/>
<path d="M28.4038 97.767C31.0706 97.9341 34.1216 97.5999 34.1546 99.6472C34.4179 101.412 32.8815 105.768 30.3573 105.82C25.6382 105.371 24.0029 96.2107 28.2062 97.767C28.2721 97.767 28.3379 97.767 28.4038 97.767Z" fill="#E2C6A8"/>
<path d="M28.3709 99.3339C32.5851 97.5373 34.0009 101.245 31.1145 104.18C27.9428 105.632 25.9784 100.044 28.2282 99.407C28.2721 99.3861 28.327 99.3652 28.3709 99.3339Z" fill="#F4868E"/>
<path d="M30.017 88.1992C32.3876 87.4053 35.3946 89.181 35.6361 91.5625C35.9214 93.5994 34.0447 96.0958 31.8059 96.054C27.4599 96.1584 25.265 89.7451 29.8195 88.2618L30.017 88.1992Z" fill="#E2C6A8"/>
<path d="M29.9841 89.7765C33.8362 87.3949 35.3068 92.91 32.5083 94.5081C29.6439 95.5213 27.6245 91.6984 29.8414 89.8913L29.9841 89.7765Z" fill="#F4868E"/>
<path d="M44.4159 72.124C46.7864 71.3302 49.7935 73.1059 50.0349 75.4874C50.3203 77.5242 48.4436 80.0206 46.2047 79.9788C41.8588 80.0833 39.6638 73.6699 44.2183 72.1867L44.4159 72.124Z" fill="#E2C6A8"/>
<path d="M44.3829 73.7012C48.235 71.3197 49.7057 76.8347 46.9071 78.4329C44.0427 79.446 42.0234 75.6231 44.2403 73.8161L44.3829 73.7012Z" fill="#F4868E"/>
<path d="M11.5686 93.0562C13.9392 92.2623 16.9462 94.038 17.1877 96.4195C17.473 98.4564 15.5964 100.953 13.3575 100.911C9.01153 101.015 6.81659 94.6021 11.3711 93.1189L11.5686 93.0562Z" fill="#E2C6A8"/>
<path d="M11.5357 94.6332C15.3879 92.2517 16.8585 97.7668 14.0599 99.3649C11.1955 100.378 9.17616 96.5552 11.3931 94.7481L11.5357 94.6332Z" fill="#F4868E"/>
<path d="M75.5842 181.977C76.3963 182.133 78.5144 183.032 79.4473 183.397C80.6435 184.003 81.8727 185.434 82.1251 186.593C82.0922 188.171 80.7204 190.124 78.9754 190.218C76.8792 190.479 74.8599 189.246 74.2453 187.345C73.51 185.685 73.4441 182.572 75.4525 181.977H75.5842Z" fill="#E2C6A8"/>
<path d="M75.5842 183.575C76.0451 183.428 76.9889 183.815 77.6144 183.909C78.3498 184.128 79.3814 184.128 79.7655 184.692C80.3801 185.653 80.4459 186.583 80.413 187.857C80.435 188.442 80.2813 188.943 79.6009 189.037C78.9973 189.163 78.229 189.372 77.801 189.319C77.0657 189.184 76.539 188.379 75.9573 187.878C75.3427 187.241 74.8708 186.207 74.7062 185.423C74.6732 184.859 75.1122 184.086 75.4963 183.637L75.5951 183.575H75.5842Z" fill="#F4868E"/>
<path d="M88.9403 207.724C89.7524 207.881 91.8706 208.779 92.8034 209.145C93.9997 209.75 95.2288 211.181 95.4812 212.341C95.4483 213.918 94.0765 215.871 92.3315 215.965C90.2353 216.226 88.216 214.994 87.6014 213.093C86.8661 211.432 86.8003 208.319 88.8086 207.724H88.9403Z" fill="#E2C6A8"/>
<path d="M88.9513 209.312C89.4122 209.166 90.356 209.552 90.9816 209.646C91.7169 209.865 92.7485 209.865 93.1326 210.429C93.7472 211.39 93.813 212.32 93.7801 213.594C93.8021 214.179 93.6484 214.681 92.968 214.775C92.3644 214.9 91.5962 215.109 91.1681 215.057C90.4328 214.921 89.9061 214.117 89.3244 213.615C88.7098 212.978 88.2379 211.944 88.0733 211.161C88.0403 210.597 88.4793 209.824 88.8634 209.374L88.9622 209.312H88.9513Z" fill="#F4868E"/>
<path d="M78.8436 218.65C79.6558 218.806 81.7739 219.705 82.7067 220.07C83.903 220.676 85.1321 222.107 85.3846 223.266C85.3516 224.844 83.9798 226.797 82.2348 226.891C80.1387 227.152 78.1193 225.92 77.5047 224.019C76.7694 222.358 76.7035 219.245 78.7119 218.65H78.8436Z" fill="#E2C6A8"/>
<path d="M78.8545 220.237C79.3155 220.091 80.2593 220.478 80.8849 220.572C81.6202 220.791 82.6518 220.791 83.0359 221.355C83.6505 222.316 83.7163 223.246 83.6834 224.52C83.7054 225.105 83.5517 225.606 82.8713 225.7C82.2677 225.826 81.4995 226.035 81.0714 225.982C80.3361 225.847 79.8093 225.042 79.2277 224.541C78.6131 223.904 78.1412 222.87 77.9766 222.086C77.9436 221.522 78.3826 220.749 78.7668 220.3L78.8655 220.237H78.8545Z" fill="#F58880"/>
<path d="M93.7912 174.153C95.4483 173.307 97.7091 173.129 99.2675 174.122C101.858 175.73 100.167 178.436 97.5445 179.334C93.0558 181.266 88.8635 177.109 93.6046 174.247L93.8021 174.143L93.7912 174.153Z" fill="#E2C6A8"/>
<path d="M96.7653 174.633C99.1797 174.863 99.6517 176.242 97.3909 177.683C96.3922 178.613 95.5581 178.77 94.0216 178.498C92.1888 178.352 91.7499 176.639 93.3083 175.762C94.296 174.989 95.2947 174.425 96.5568 174.623L96.7653 174.644V174.633Z" fill="#F4868E"/>
<path d="M93.7912 190.374C95.4483 189.528 97.7091 189.351 99.2675 190.343C101.858 191.952 100.167 194.657 97.5445 195.555C93.0558 197.488 88.8635 193.33 93.6046 190.468L93.8021 190.364L93.7912 190.374Z" fill="#E2C6A8"/>
<path d="M96.7653 190.855C99.1797 191.085 99.6517 192.463 97.3909 193.905C96.3922 194.835 95.5581 194.991 94.0216 194.72C92.1888 194.573 91.7499 192.86 93.3083 191.983C94.296 191.21 95.2947 190.646 96.5568 190.844L96.7653 190.865V190.855Z" fill="#F4868E"/>
<path d="M102.659 201.102C104.316 200.256 106.577 200.078 108.135 201.07C110.725 202.679 109.035 205.384 106.412 206.283C101.923 208.215 97.7311 204.058 102.472 201.196L102.67 201.091L102.659 201.102Z" fill="#E2C6A8"/>
<path d="M105.622 201.582C108.036 201.812 108.508 203.191 106.247 204.632C105.249 205.562 104.415 205.718 102.878 205.447C101.045 205.301 100.606 203.588 102.165 202.71C103.153 201.937 104.151 201.373 105.413 201.572L105.622 201.593V201.582Z" fill="#F4868E"/>
<path d="M68.1103 206.303C69.7675 205.457 72.0283 205.28 73.5867 206.272C76.1767 207.881 74.4866 210.586 71.8636 211.484C67.375 213.417 63.1826 209.259 67.9237 206.397L68.1213 206.293L68.1103 206.303Z" fill="#E2C6A8"/>
<path d="M71.0735 206.784C73.488 207.014 73.9599 208.392 71.6991 209.834C70.7004 210.764 69.8663 210.92 68.3298 210.649C66.4971 210.502 66.0581 208.789 67.6165 207.912C68.6042 207.139 69.6029 206.575 70.865 206.773L71.0735 206.794V206.784Z" fill="#F4868E"/>
<path d="M80.6764 191.127C82.7286 190.218 86.1966 191.231 87.5026 193.059C89.511 197.279 83.0908 197.216 80.3251 197.133C78.3278 197.08 76.7364 195.315 78.3826 193.466C78.9862 192.693 79.6886 191.638 80.5117 191.221L80.6764 191.137V191.127Z" fill="#E2C6A8"/>
<path d="M79.3045 194.762C79.6557 193.498 80.6873 192.192 82.158 192.088C84.2651 191.868 86.7893 193.425 85.3516 195.409C84.5395 196.182 83.014 196.224 81.7738 196.37C80.4678 196.516 78.8217 196.537 79.2497 194.95L79.2935 194.772L79.3045 194.762Z" fill="#F4868E"/>
<path d="M81.4446 207.327C82.3994 207.599 83.9029 208.486 84.4846 209.353C85.1321 210.523 85.9113 212.215 85.176 213.417C84.1883 215.558 81.8616 217.187 79.3704 216.362C76.0889 215.85 74.8269 212.142 76.3633 209.615C76.7584 208.81 77.5596 208.528 78.7997 208.048C79.6228 207.745 80.7093 207.223 81.28 207.306L81.4446 207.327Z" fill="#E2C6A8"/>
<path d="M78.69 209.458C79.9959 209.239 82.5201 209.406 83.5188 210.408C83.9139 211.014 84.2212 211.735 83.8152 212.414C83.3432 213.427 82.575 214.127 81.3897 214.378C80.6874 214.566 79.8423 214.587 79.0851 214.482C77.8559 214.106 76.8572 212.351 77.0986 211.161C77.1974 210.534 77.8669 209.855 78.5144 209.521L78.679 209.458H78.69Z" fill="#F4868E"/>
<path d="M74.4209 195.795C75.3757 196.067 76.8792 196.955 77.4608 197.822C78.1083 198.992 78.8876 200.684 78.1523 201.885C77.1645 204.026 74.8379 205.656 72.3466 204.831C69.0652 204.319 67.8031 200.611 69.3396 198.083C69.7346 197.279 70.5358 196.997 71.7759 196.516C72.5991 196.213 73.6855 195.691 74.2562 195.775L74.4209 195.795Z" fill="#E2C6A8"/>
<path d="M71.6771 197.926C72.9831 197.707 75.5073 197.874 76.506 198.877C76.9011 199.483 77.2083 200.203 76.8023 200.882C76.3304 201.896 75.5621 202.595 74.3769 202.846C73.6745 203.034 72.8294 203.055 72.0722 202.951C70.843 202.575 69.8443 200.82 70.0858 199.629C70.1845 199.002 70.854 198.323 71.5015 197.989L71.6661 197.926H71.6771Z" fill="#F4868E"/>
<path d="M103.855 179.396C104.81 179.668 106.313 180.556 106.895 181.423C107.542 182.593 108.322 184.285 107.586 185.486C106.599 187.627 104.272 189.257 101.781 188.432C98.4993 187.92 97.2372 184.212 98.7737 181.684C99.1688 180.88 99.9699 180.598 101.21 180.117C102.033 179.814 103.12 179.292 103.69 179.376L103.855 179.396Z" fill="#E2C6A8"/>
<path d="M101.111 181.527C102.417 181.308 104.941 181.475 105.94 182.478C106.335 183.084 106.643 183.804 106.236 184.483C105.765 185.497 104.996 186.196 103.811 186.447C103.109 186.635 102.264 186.656 101.506 186.551C100.277 186.175 99.2785 184.421 99.52 183.23C99.6187 182.603 100.288 181.924 100.936 181.59L101.1 181.527H101.111Z" fill="#F4868E"/>
<path d="M92.99 198.772C95.6569 198.94 98.7079 198.605 98.7408 200.653C99.0042 202.418 97.4677 206.773 94.9435 206.826C90.2244 206.377 88.5892 197.216 92.7925 198.772C92.8583 198.772 92.9242 198.772 92.99 198.772Z" fill="#E2C6A8"/>
<path d="M92.9571 200.339C97.1714 198.543 98.5871 202.251 95.7008 205.186C92.5291 206.638 90.5646 201.05 92.8144 200.412C92.8583 200.391 92.9132 200.371 92.9571 200.339Z" fill="#F4868E"/>
<path d="M82.4982 198.71C84.8687 197.916 87.8758 199.692 88.1172 202.073C88.4026 204.11 86.5259 206.606 84.2871 206.565C79.9411 206.669 77.7461 200.256 82.3006 198.773L82.4982 198.71Z" fill="#E2C6A8"/>
<path d="M82.4653 200.287C86.3174 197.905 87.788 203.421 84.9894 205.019C82.125 206.032 80.1057 202.209 82.3226 200.402L82.4653 200.287Z" fill="#F4868E"/>
<path d="M106.412 189.863C108.783 189.069 111.79 190.844 112.031 193.226C112.316 195.263 110.44 197.759 108.201 197.717C103.855 197.822 101.66 191.409 106.215 189.925L106.412 189.863Z" fill="#E2C6A8"/>
<path d="M106.39 191.44C110.242 189.058 111.713 194.573 108.914 196.172C106.05 197.185 104.031 193.362 106.247 191.555L106.39 191.44Z" fill="#F4868E"/>
<path d="M82.4433 173.464C84.8138 172.67 87.8209 174.445 88.0623 176.827C88.3477 178.864 86.471 181.36 84.2321 181.318C79.8861 181.423 77.6912 175.01 82.2457 173.526L82.4433 173.464Z" fill="#E2C6A8"/>
<path d="M82.125 175.041C85.9772 172.659 87.4478 178.174 84.6492 179.773C81.7848 180.786 79.7655 176.963 81.9824 175.156L82.125 175.041Z" fill="#F4868E"/>
<path d="M87.9746 182.217C90.3451 181.423 93.3522 183.199 93.5936 185.58C93.879 187.617 92.0023 190.113 89.7635 190.072C85.4175 190.176 83.2225 183.763 87.777 182.279L87.9746 182.217Z" fill="#E2C6A8"/>
<path d="M87.9416 183.794C91.7938 181.413 93.2644 186.928 90.4658 188.526C87.6014 189.539 85.5821 185.716 87.799 183.909L87.9416 183.794Z" fill="#F4868E"/>
<path d="M68.0445 213.458C70.415 212.665 73.4221 214.44 73.6636 216.822C73.9489 218.859 72.0722 221.355 69.8334 221.313C65.4874 221.418 63.2924 215.004 67.8469 213.521L68.0445 213.458Z" fill="#E2C6A8"/>
<path d="M68.0115 215.025C71.8637 212.644 73.3343 218.159 70.5357 219.757C67.6713 220.77 65.652 216.947 67.8689 215.14L68.0115 215.025Z" fill="#F4868E"/>
<path d="M87.6014 225.606C89.9719 224.812 92.979 226.588 93.2205 228.97C93.5058 231.006 91.6291 233.503 89.3903 233.461C85.0443 233.566 82.8494 227.152 87.4039 225.669L87.6014 225.606Z" fill="#E2C6A8"/>
<path d="M87.5685 227.173C91.4206 224.792 92.8912 230.307 90.0927 231.905C87.2283 232.918 85.2089 229.095 87.4258 227.288L87.5685 227.173Z" fill="#F4868E"/>
<path d="M94.5594 217.344C96.93 216.55 99.9371 218.326 100.179 220.708C100.464 222.744 98.5872 225.241 96.3483 225.199C92.0023 225.303 89.8074 218.89 94.3619 217.407L94.5594 217.344Z" fill="#E2C6A8"/>
<path d="M94.5265 218.921C98.3786 216.54 99.8492 222.055 97.0507 223.653C94.1863 224.666 92.1669 220.843 94.3838 219.036L94.5265 218.921Z" fill="#F4868E"/>
<path d="M99.2894 207.797C101.66 207.003 104.667 208.779 104.909 211.16C105.194 213.197 103.317 215.694 101.078 215.652C96.7323 215.756 94.5374 209.343 99.0919 207.86L99.2894 207.797Z" fill="#E2C6A8"/>
<path d="M99.2565 209.374C103.109 206.993 104.579 212.508 101.781 214.106C98.9163 215.119 96.8969 211.296 99.1138 209.489L99.2565 209.374Z" fill="#F4868E"/>
<path d="M68.3408 223.079C69.1529 223.235 71.271 224.134 72.2039 224.499C73.4001 225.105 74.6293 226.536 74.8817 227.695C74.8488 229.273 73.477 231.226 71.732 231.32C69.6358 231.581 67.6165 230.348 67.0019 228.447C66.2666 226.787 66.2007 223.674 68.2091 223.079H68.3408Z" fill="#E2C6A8"/>
<path d="M68.3518 224.666C68.8127 224.52 69.7565 224.906 70.3821 225C71.1174 225.22 72.149 225.22 72.5331 225.784C73.1477 226.745 73.2136 227.674 73.1806 228.949C73.2026 229.534 73.0489 230.035 72.3685 230.129C71.7649 230.254 70.9967 230.463 70.5686 230.411C69.8333 230.275 69.3066 229.471 68.7249 228.97C68.1103 228.332 67.6384 227.298 67.4738 226.515C67.4408 225.951 67.8798 225.178 68.264 224.729L68.3627 224.666H68.3518Z" fill="#F4868E"/>
<path d="M82.6518 236.49C84.309 235.644 86.5698 235.466 88.1282 236.459C90.7182 238.067 89.0281 240.773 86.4052 241.671C81.9165 243.603 77.7242 239.446 82.4652 236.584L82.6628 236.48L82.6518 236.49Z" fill="#E2C6A8"/>
<path d="M85.626 236.971C88.0404 237.2 88.5123 238.579 86.2515 240.021C85.2528 240.95 84.4188 241.107 82.8823 240.835C81.0495 240.689 80.6105 238.976 82.1689 238.099C83.1567 237.326 84.1554 236.762 85.4174 236.96L85.626 236.981V236.971Z" fill="#F4868E"/>
<path d="M76.0999 229.92C78.4704 229.126 81.4775 230.902 81.7189 233.283C82.0043 235.32 80.1276 237.817 77.8887 237.775C73.5427 237.879 71.3478 231.466 75.9023 229.983L76.0999 229.92Z" fill="#E2C6A8"/>
<path d="M76.0669 231.487C79.9191 229.105 81.3897 234.62 78.5911 236.218C75.7267 237.232 73.7074 233.409 75.9243 231.602L76.0669 231.487Z" fill="#F4868E"/>
<path d="M64.6862 16.6598C65.4983 16.8165 67.6165 17.7148 68.5493 18.0804C69.7455 18.6862 70.9747 20.1172 71.2271 21.2766C71.1942 22.8538 69.8224 24.8071 68.0774 24.9011C65.9812 25.1622 63.9618 23.9297 63.3473 22.0287C62.612 20.3679 62.5461 17.2552 64.5545 16.6598H64.6862Z" fill="#E2C6A8"/>
<path d="M64.6861 18.2473C65.1471 18.1011 66.0909 18.4876 66.7165 18.5816C67.4518 18.8009 68.4834 18.8009 68.8675 19.365C69.4821 20.3259 69.548 21.2556 69.515 22.5299C69.537 23.1148 69.3833 23.6162 68.7029 23.7102C68.0993 23.8355 67.3311 24.0444 66.903 23.9922C66.1677 23.8564 65.641 23.0521 65.0593 22.5508C64.4447 21.9136 63.9728 20.8795 63.8082 20.0961C63.7752 19.5321 64.2142 18.7592 64.5983 18.31L64.6971 18.2473H64.6861Z" fill="#F4868E"/>
<path d="M82.5531 58.4511C83.3103 58.5974 85.209 59.3912 86.2186 59.7881C86.3613 59.8404 86.482 59.8926 86.6137 59.9761C87.3929 60.4253 88.1612 61.1982 88.6441 61.9921C89.0611 62.6815 89.1379 63.5275 88.8526 64.2691C88.3807 65.5017 87.2722 66.6402 85.9443 66.7029C83.8481 66.964 81.8287 65.7315 81.2141 63.8304C80.4788 62.1696 80.413 59.057 82.4214 58.4616H82.5531V58.4511Z" fill="#E2C6A8"/>
<path d="M82.553 60.0388C83.014 59.8925 83.9578 60.279 84.5834 60.373C85.3187 60.5924 86.3503 60.5924 86.7344 61.1564C87.349 62.1174 87.4149 63.047 87.3819 64.3213C87.4039 64.9063 87.2502 65.4076 86.5698 65.5016C86.471 65.5225 86.3613 65.5434 86.2625 65.5643C85.187 65.8045 84.0456 65.4703 83.2884 64.6974C83.1676 64.572 83.0469 64.4467 82.9262 64.3422C82.597 63.9975 82.3007 63.5275 82.0702 63.047C81.6202 62.086 81.7519 60.9371 82.4433 60.1119C82.4433 60.1119 82.4433 60.1119 82.4543 60.1015L82.553 60.0388Z" fill="#F4868E"/>
<path d="M63.062 48.8103C63.8741 48.967 65.9922 49.8653 66.9251 50.2308C68.1213 50.8367 69.3505 52.2677 69.6029 53.4271C69.57 55.0043 68.1981 56.9576 66.4532 57.0516C64.357 57.3127 62.3376 56.0802 61.7231 54.1791C60.9878 52.5183 60.9219 49.4057 62.9303 48.8103H63.062Z" fill="#E2C6A8"/>
<path d="M63.062 50.3979C63.5229 50.2517 64.4667 50.6382 65.0923 50.7322C65.8276 50.9515 66.8592 50.9515 67.2433 51.5155C67.8579 52.4765 67.9237 53.4061 67.8908 54.6805C67.9128 55.2654 67.7591 55.7668 67.0787 55.8608C66.4751 55.9861 65.7069 56.195 65.2788 56.1428C64.5435 56.007 64.0168 55.2027 63.4351 54.7014C62.8205 54.0642 62.3486 53.0301 62.184 52.2467C62.151 51.6827 62.59 50.9097 62.9741 50.4606L63.0729 50.3979H63.062Z" fill="#F4868E"/>
<path d="M78.8216 83.8748C79.6337 84.0315 81.7519 84.9298 82.6847 85.2953C83.881 85.9012 85.1102 87.3322 85.3626 88.4916C85.3296 90.0688 83.9578 92.0221 82.2128 92.1161C80.1166 92.3772 78.0973 91.1447 77.4827 89.2436C76.7474 87.5828 76.6816 84.4702 78.6899 83.8748H78.8216Z" fill="#E2C6A8"/>
<path d="M78.8326 85.4626C79.2935 85.3164 80.2374 85.7028 80.8629 85.7968C81.5982 86.0162 82.6298 86.0162 83.014 86.5802C83.6285 87.5412 83.6944 88.4708 83.6615 89.7451C83.6834 90.3301 83.5298 90.8314 82.8493 90.9254C82.2457 91.0508 81.4775 91.2597 81.0495 91.2075C80.3142 91.0717 79.7874 90.2674 79.2057 89.766C78.5912 89.1289 78.1193 88.0948 77.9546 87.3114C77.9217 86.7473 78.3607 85.9744 78.7448 85.5253L78.8436 85.4626H78.8326Z" fill="#F4868E"/>
<path d="M104.996 42.8147C106.654 41.9687 108.914 41.7911 110.473 42.7834C113.063 44.392 111.373 47.0973 108.75 47.9956C104.261 49.9279 100.069 45.7707 104.81 42.9087L105.007 42.8043L104.996 42.8147Z" fill="#E2C6A8"/>
<path d="M107.97 43.2951C110.385 43.5249 110.857 44.9037 108.596 46.3451C107.597 47.2747 106.763 47.4314 105.227 47.1598C103.394 47.0136 102.955 45.3006 104.513 44.4232C105.501 43.6502 106.5 43.0862 107.762 43.2846L107.97 43.3055V43.2951Z" fill="#F4868E"/>
<path d="M93.7143 44.1933C95.3715 43.3473 97.6323 43.1697 99.1907 44.162C101.781 45.7706 100.091 48.4759 97.4677 49.3742C92.979 51.3066 88.7867 47.1493 93.5277 44.2873L93.7253 44.1829L93.7143 44.1933Z" fill="#E2C6A8"/>
<path d="M96.6884 44.6842C99.1029 44.914 99.5748 46.2928 97.314 47.7342C96.3153 48.6639 95.4812 48.8205 93.9447 48.549C92.112 48.4027 91.673 46.6897 93.2314 45.8123C94.2191 45.0394 95.2178 44.4753 96.4799 44.6738L96.6884 44.6947V44.6842Z" fill="#F4868E"/>
<path d="M106.039 60.1015C107.696 59.2554 109.957 59.0779 111.515 60.0702C114.105 61.6787 112.415 64.384 109.792 65.2823C105.304 67.2147 101.111 63.0575 105.852 60.1955L106.05 60.091L106.039 60.1015Z" fill="#E2C6A8"/>
<path d="M109.002 60.582C111.417 60.8117 111.889 62.1905 109.628 63.632C108.629 64.5616 107.795 64.7183 106.258 64.4467C104.426 64.3005 103.987 62.5874 105.545 61.71C106.533 60.9371 107.532 60.3731 108.794 60.5715L109.002 60.5924V60.582Z" fill="#F4868E"/>
<path d="M69.3395 43.483C70.9966 42.637 73.2574 42.4594 74.8158 43.4517C77.4059 45.0603 75.7158 47.7656 73.0928 48.6639C68.6041 50.5962 64.4118 46.439 69.1529 43.577L69.3504 43.4726L69.3395 43.483Z" fill="#E2C6A8"/>
<path d="M72.3136 43.9634C74.7281 44.1932 75.2 45.572 72.9392 47.0135C71.9405 47.9431 71.1064 48.0998 69.57 47.8282C67.7372 47.6819 67.2982 45.9689 68.8566 45.0915C69.8443 44.3186 70.843 43.7545 72.1051 43.953L72.3136 43.9739V43.9634Z" fill="#F4868E"/>
<path d="M72.2917 25.4756C74.3439 24.5668 77.812 25.58 79.1179 27.4079C81.1263 31.6278 74.7061 31.5651 71.9405 31.4816C69.9431 31.4293 68.3517 29.6641 69.998 27.8153C70.6016 27.0423 71.3039 25.9874 72.127 25.5696L72.2917 25.486V25.4756Z" fill="#E2C6A8"/>
<path d="M70.9307 29.121C71.2819 27.8571 72.3135 26.5514 73.7842 26.447C75.8913 26.2276 78.4155 27.784 76.9778 29.7686C76.1657 30.5415 74.6402 30.5833 73.4 30.7295C72.094 30.8758 70.4478 30.8967 70.8759 29.309L70.9198 29.1314L70.9307 29.121Z" fill="#F4868E"/>
<path d="M68.3408 8.89889C70.3931 7.99015 73.8611 9.00334 75.1671 10.8313C77.1754 15.0511 70.7552 14.9885 67.9896 14.9049C65.9922 14.8527 64.4009 13.0874 66.0471 11.2386C66.6507 10.4657 67.3531 9.4107 68.1762 8.99289L68.3408 8.90933V8.89889Z" fill="#E2C6A8"/>
<path d="M66.9799 12.5338C67.3311 11.2699 68.3627 9.96428 69.8333 9.85983C71.9405 9.64048 74.4646 11.1968 73.027 13.1814C72.2148 13.9544 70.6894 13.9961 69.4492 14.1424C68.1432 14.2886 66.497 14.3095 66.925 12.7218L66.9689 12.5443L66.9799 12.5338Z" fill="#F4868E"/>
<path d="M94.6143 35.2523C96.6666 34.3435 100.135 35.3567 101.441 37.1846C103.449 41.4045 97.0287 41.3418 94.2631 41.2583C92.2657 41.2061 90.6744 39.4408 92.3206 37.592C92.9242 36.8191 93.6266 35.7641 94.4497 35.3463L94.6143 35.2627V35.2523Z" fill="#E2C6A8"/>
<path d="M93.2534 38.8977C93.6046 37.6338 94.6362 36.3281 96.1068 36.2237C98.214 36.0043 100.738 37.5607 99.3005 39.5453C98.4883 40.3182 96.9629 40.36 95.7227 40.5062C94.4167 40.6525 92.7705 40.6734 93.1985 39.0857L93.2424 38.9081L93.2534 38.8977Z" fill="#F4868E"/>
<path d="M80.2922 47.2434C81.247 47.515 82.7506 48.4028 83.3323 49.2698C83.9798 50.4397 84.759 52.1318 84.0237 53.333C83.0359 55.4743 80.7093 57.1037 78.218 56.2786C74.9366 55.7667 73.6745 52.0587 75.211 49.5309C75.6061 48.7267 76.4072 48.4446 77.6473 47.9641C78.4704 47.6612 79.5569 47.139 80.1276 47.2225L80.2922 47.2434Z" fill="#E2C6A8"/>
<path d="M77.5376 49.3639C78.8436 49.1446 81.3677 49.3117 82.3664 50.3145C82.7615 50.9203 83.0688 51.641 82.6627 52.3199C82.1908 53.3331 81.4226 54.033 80.2373 54.2837C79.535 54.4717 78.6899 54.4926 77.9326 54.3881C76.7035 54.0121 75.7048 52.2573 75.9462 51.0665C76.045 50.4398 76.7145 49.7609 77.362 49.4266L77.5266 49.3639H77.5376Z" fill="#F4868E"/>
<path d="M64.2253 28.8285C65.1801 29.1 66.6836 29.9879 67.2653 30.8548C67.9128 32.0247 68.692 33.7168 67.9567 34.918C66.9689 37.0593 64.6423 38.6888 62.151 37.8636C58.8696 37.3518 57.6075 33.6437 59.144 31.116C59.5391 30.3117 60.3402 30.0297 61.5804 29.5492C62.4035 29.2463 63.49 28.724 64.0607 28.8076L64.2253 28.8285Z" fill="#E2C6A8"/>
<path d="M61.4816 30.9594C62.7876 30.74 65.3118 30.9072 66.3105 31.9099C66.7056 32.5157 67.0128 33.2365 66.6068 33.9154C66.1349 34.9286 65.3667 35.6284 64.1814 35.8791C63.479 36.0671 62.6339 36.088 61.8767 35.9836C60.6475 35.6075 59.6488 33.8527 59.8903 32.662C59.989 32.0353 60.6585 31.3563 61.306 31.0221L61.4706 30.9594H61.4816Z" fill="#F4868E"/>
<path d="M86.8991 28.8494C87.8539 29.121 89.3574 30.0088 89.9391 30.8758C90.5866 32.0457 91.3658 33.7378 90.6305 34.939C89.6428 37.0803 87.3161 38.7097 84.8249 37.8845C81.5434 37.3727 80.2813 33.6647 81.8178 31.1369C82.2129 30.3326 83.0141 30.0506 84.2542 29.5701C85.0773 29.2672 86.1638 28.745 86.7345 28.8285L86.8991 28.8494Z" fill="#E2C6A8"/>
<path d="M84.1444 30.9802C85.4504 30.7608 87.9746 30.928 88.9733 31.9307C89.3684 32.5365 89.6757 33.2573 89.2696 33.9362C88.7977 34.9494 88.0294 35.6492 86.8442 35.8999C86.1418 36.0879 85.2968 36.1088 84.5395 36.0043C83.3103 35.6283 82.3116 33.8735 82.5531 32.6828C82.6518 32.056 83.3213 31.3771 83.9688 31.0429L84.1334 30.9802H84.1444Z" fill="#F4868E"/>
<path d="M79.5679 15.0198C80.5227 15.2914 82.0262 16.1793 82.6079 17.0462C83.2554 18.2161 84.0346 19.9082 83.2993 21.1094C82.3116 23.2507 79.9849 24.8802 77.4937 24.055C74.2122 23.5432 72.9502 19.8351 74.4866 17.3073C74.8817 16.5031 75.6829 16.221 76.923 15.7406C77.7461 15.4377 78.8326 14.9154 79.4033 14.999L79.5679 15.0198Z" fill="#E2C6A8"/>
<path d="M76.8132 17.1402C78.1192 16.9208 80.6434 17.0879 81.6421 18.0907C82.0372 18.6965 82.3445 19.4172 81.9384 20.0962C81.4665 21.1094 80.6983 21.8092 79.513 22.0599C78.8106 22.2479 77.9655 22.2688 77.2083 22.1643C75.9791 21.7883 74.9804 20.0335 75.2219 18.8427C75.3206 18.216 75.9901 17.5371 76.6376 17.2028L76.8022 17.1402H76.8132Z" fill="#F4868E"/>
<path d="M84.4516 40.3391C87.1185 40.5062 90.1695 40.172 90.2024 42.2192C90.4658 43.9845 88.9293 48.3402 86.4051 48.3924C81.686 47.9432 80.0508 38.7828 84.2541 40.3391C84.32 40.3391 84.3858 40.3391 84.4516 40.3391Z" fill="#E2C6A8"/>
<path d="M84.4187 41.9058C88.633 40.1092 90.0488 43.8173 87.1624 46.7524C83.9907 48.2043 82.0262 42.6161 84.276 41.9789C84.3199 41.958 84.3748 41.9371 84.4187 41.9058Z" fill="#F4868E"/>
<path d="M81.3019 94.2783C83.9688 94.4454 87.0198 94.1111 87.0527 96.1584C87.3161 97.9237 85.7796 102.279 83.2554 102.332C78.5363 101.882 76.9011 92.7219 81.1044 94.2783C81.1703 94.2783 81.2361 94.2783 81.3019 94.2783Z" fill="#E2C6A8"/>
<path d="M81.269 95.8451C85.4833 94.0485 86.899 97.7565 84.0127 100.692C80.841 102.144 78.8765 96.5553 81.1263 95.9182C81.1702 95.8973 81.2251 95.8764 81.269 95.8451Z" fill="#F4868E"/>
<path d="M74.4537 33.6228C76.8242 32.8289 79.8313 34.6046 80.0728 36.9861C80.3581 39.023 78.4814 41.5194 76.2426 41.4776C71.8966 41.5821 69.7016 35.1687 74.2561 33.6855L74.4537 33.6228Z" fill="#E2C6A8"/>
<path d="M74.4207 35.2001C78.2729 32.8186 79.7435 38.3336 76.9449 39.9318C74.0805 40.945 72.0612 37.122 74.2781 35.315L74.4207 35.2001Z" fill="#F4868E"/>
<path d="M101.188 50.0846C103.559 49.2907 106.566 51.0664 106.807 53.4479C107.093 55.4847 105.216 57.9812 102.977 57.9394C98.631 58.0438 96.4361 51.6305 100.991 50.1472L101.188 50.0846Z" fill="#E2C6A8"/>
<path d="M101.166 51.6514C105.018 49.2698 106.489 54.7849 103.69 56.383C100.826 57.3962 98.8066 53.5733 101.024 51.7663L101.166 51.6514Z" fill="#F4868E"/>
<path d="M57.7282 9.61967C60.0988 8.82583 63.1058 10.6015 63.3473 12.983C63.6326 15.0198 61.7559 17.5163 59.5171 17.4745C55.1711 17.5789 52.9762 11.1656 57.5307 9.68234L57.7282 9.61967Z" fill="#E2C6A8"/>
<path d="M57.399 11.1969C61.2511 8.81539 62.7217 14.3305 59.9231 15.9286C57.0587 16.9418 55.0394 13.1188 57.2563 11.3118L57.399 11.1969Z" fill="#F4868E"/>
<path d="M56.0381 19.8143C58.4087 19.0205 61.4157 20.7961 61.6572 23.1777C61.9425 25.2145 60.0658 27.7109 57.827 27.6691C53.481 27.7736 51.2861 21.3602 55.8406 19.877L56.0381 19.8143Z" fill="#E2C6A8"/>
<path d="M56.0052 21.3915C59.8574 19.0099 61.328 24.525 58.5294 26.1231C55.665 27.1363 53.6457 23.3134 55.8626 21.5063L56.0052 21.3915Z" fill="#F4868E"/>
<path d="M59.7914 39.681C62.162 38.8871 65.169 40.6628 65.4105 43.0443C65.6958 45.0812 63.8192 47.5776 61.5803 47.5358C57.2343 47.6402 55.0394 41.2269 59.5939 39.7436L59.7914 39.681Z" fill="#E2C6A8"/>
<path d="M59.7585 41.2478C63.6106 38.8663 65.0812 44.3813 62.2827 45.9795C59.4183 46.9926 57.3989 43.1697 59.6158 41.3627L59.7585 41.2478Z" fill="#F4868E"/>
<path d="M79.2277 67.4236C81.5982 66.6297 84.6053 68.4054 84.8468 70.7869C85.1321 72.8238 83.2554 75.3202 81.0166 75.2784C76.6706 75.3828 74.4757 68.9695 79.0302 67.4862L79.2277 67.4236Z" fill="#E2C6A8"/>
<path d="M79.2058 69.0009C83.0579 66.6194 84.5285 72.1344 81.7299 73.7326C78.8655 74.7458 76.8462 70.9228 79.0631 69.1158L79.2058 69.0009Z" fill="#F4868E"/>
<path d="M101.243 67.4236C103.613 66.6297 106.621 68.4054 106.862 70.7869C107.147 72.8238 105.271 75.3202 103.032 75.2784C98.6859 75.3828 96.4909 68.9695 101.045 67.4862L101.243 67.4236Z" fill="#E2C6A8"/>
<path d="M101.21 69.0009C105.062 66.6194 106.533 72.1344 103.734 73.7326C100.87 74.7458 98.8505 70.9228 101.067 69.1158L101.21 69.0009Z" fill="#F4868E"/>
<path d="M95.2618 57.8244C97.6323 57.0305 100.639 58.8062 100.881 61.1877C101.166 63.2246 99.2895 65.721 97.0507 65.6792C92.7047 65.7836 90.5097 59.3703 95.0642 57.887L95.2618 57.8244Z" fill="#E2C6A8"/>
<path d="M95.2289 59.4016C99.081 57.0201 100.552 62.5352 97.753 64.1333C94.8886 65.1465 92.8693 61.3235 95.0862 59.5165L95.2289 59.4016Z" fill="#F4868E"/>
<path d="M68.0884 66.7238C68.9005 66.8804 71.0186 67.7787 71.9515 68.1443C73.1477 68.7501 74.3769 70.1811 74.6293 71.3406C74.5964 72.9178 73.2245 74.8711 71.4796 74.9651C69.3834 75.2262 67.364 73.9937 66.7495 72.0926C66.0141 70.4318 65.9483 67.3191 67.9567 66.7238H68.0884Z" fill="#E2C6A8"/>
<path d="M68.0884 68.3219C68.5493 68.1757 69.4932 68.5622 70.1187 68.6562C70.854 68.8755 71.8856 68.8755 72.2698 69.4396C72.8843 70.4005 72.9502 71.3302 72.9173 72.6045C72.9392 73.1894 72.7856 73.6908 72.1051 73.7848C71.5015 73.9101 70.7333 74.119 70.3053 74.0668C69.57 73.931 69.0432 73.1267 68.4615 72.6254C67.8469 71.9882 67.375 70.9541 67.2104 70.1708C67.1775 69.6067 67.6165 68.8338 68.0006 68.3846L68.0994 68.3219H68.0884Z" fill="#F4868E"/>
<path d="M72.7417 76.6467C74.3988 75.8007 76.6596 75.6231 78.218 76.6154C80.8081 78.224 79.1179 80.9293 76.495 81.8275C72.0063 83.7599 67.814 79.6027 72.5551 76.7407L72.7526 76.6363L72.7417 76.6467Z" fill="#E2C6A8"/>
<path d="M75.7158 77.1375C78.1302 77.3673 78.6021 78.7461 76.3414 80.1875C75.3427 81.1171 74.5086 81.2738 72.9721 81.0022C71.1393 80.856 70.7003 79.143 72.2588 78.2656C73.2465 77.4926 74.2452 76.9286 75.5073 77.127L75.7158 77.1479V77.1375Z" fill="#F4868E"/>
<path d="M93.3522 86.4966C94.307 86.7682 95.8105 87.656 96.3922 88.523C97.0397 89.6929 97.8189 91.385 97.0836 92.5862C96.0959 94.7275 93.7692 96.3569 91.278 95.5318C87.9965 95.0199 86.7344 91.3119 88.2709 88.7841C88.666 87.9798 89.4672 87.6978 90.7073 87.2173C91.5304 86.9144 92.6169 86.3922 93.1876 86.4757L93.3522 86.4966Z" fill="#E2C6A8"/>
<path d="M90.5975 88.6169C91.9035 88.3976 94.4277 88.5647 95.4264 89.5675C95.8215 90.1733 96.1287 90.894 95.7227 91.5729C95.2508 92.5861 94.4825 93.286 93.2973 93.5367C92.5949 93.7247 91.7498 93.7456 90.9926 93.6411C89.7634 93.2651 88.7647 91.5103 89.0061 90.3195C89.1049 89.6928 89.7744 89.0139 90.4219 88.6796L90.5865 88.6169H90.5975Z" fill="#F4868E"/>
<path d="M92.3974 66.5253C93.3522 66.7969 94.8557 67.6847 95.4374 68.5517C96.0849 69.7215 96.8641 71.4137 96.1288 72.6149C95.1411 74.7561 92.8144 76.3856 90.3232 75.5604C87.0417 75.0486 85.7797 71.3405 87.3161 68.8128C87.7112 68.0085 88.5124 67.7265 89.7525 67.246C90.5756 66.9431 91.6621 66.4208 92.2328 66.5044L92.3974 66.5253Z" fill="#E2C6A8"/>
<path d="M89.6536 68.6458C90.9596 68.4265 93.4839 68.5936 94.4826 69.5963C94.8776 70.2022 95.1849 70.9229 94.7789 71.6018C94.3069 72.615 93.5387 73.3148 92.3534 73.5655C91.6511 73.7535 90.806 73.7744 90.0488 73.67C88.8196 73.2939 87.8209 71.5391 88.0623 70.3484C88.1611 69.7217 88.8306 69.0427 89.4781 68.7085L89.6427 68.6458H89.6536Z" fill="#F4868E"/>
<path d="M85.4285 76.7721C88.0953 76.9392 91.1463 76.605 91.1792 78.6522C91.4426 80.4175 89.9061 84.7732 87.382 84.8254C82.6628 84.3762 81.0276 75.2158 85.2309 76.7721C85.2967 76.7721 85.3626 76.7721 85.4285 76.7721Z" fill="#E2C6A8"/>
<path d="M85.4065 78.3388C89.6208 76.5422 91.0365 80.2503 88.1502 83.1854C84.9785 84.6373 83.014 79.0491 85.2638 78.4119C85.3077 78.391 85.3626 78.3701 85.4065 78.3388Z" fill="#F4868E"/>
<path d="M97.6104 25.9978C100.277 26.1649 103.328 25.8307 103.361 27.878C103.625 29.6432 102.088 33.9989 99.5638 34.0511C94.8447 33.6019 93.2095 24.4415 97.4128 25.9978C97.4787 25.9978 97.5445 25.9978 97.6104 25.9978Z" fill="#E2C6A8"/>
<path d="M97.5774 27.5645C101.792 25.7679 103.207 29.476 100.321 32.4111C97.1494 33.863 95.185 28.2748 97.4348 27.6376C97.4787 27.6167 97.5335 27.5958 97.5774 27.5645Z" fill="#F4868E"/>
<path d="M88.633 10.7059C91.2999 10.8731 94.3508 10.5388 94.3838 12.5861C94.6471 14.3513 93.1107 18.707 90.5865 18.7592C85.8674 18.3101 84.2322 9.14959 88.4355 10.7059C88.5013 10.7059 88.5672 10.7059 88.633 10.7059Z" fill="#E2C6A8"/>
<path d="M88.6001 12.2727C92.8144 10.4762 94.2302 14.1842 91.3438 17.1193C88.1721 18.5712 86.2076 12.983 88.4574 12.3459C88.5013 12.325 88.5562 12.3041 88.6001 12.2727Z" fill="#F4868E"/>
<path d="M97.0616 77.2839C99.4321 76.49 102.439 78.2657 102.681 80.6472C102.966 82.6841 101.089 85.1805 98.8505 85.1387C94.5045 85.2431 92.3095 78.8298 96.8641 77.3465L97.0616 77.2839Z" fill="#E2C6A8"/>
<path d="M97.0287 78.8507C100.881 76.4691 102.351 81.9842 99.5529 83.5823C96.6885 84.5955 94.6692 80.7726 96.886 78.9656L97.0287 78.8507Z" fill="#F4868E"/>
<path d="M71.8088 57.72C74.1793 56.9261 77.1864 58.7018 77.4278 61.0833C77.7132 63.1201 75.8365 65.6165 73.5977 65.5748C69.2517 65.6792 67.0567 59.2659 71.6112 57.7826L71.8088 57.72Z" fill="#E2C6A8"/>
<path d="M71.7759 59.2973C75.628 56.9158 77.0986 62.4308 74.3001 64.029C71.4357 65.0421 69.4163 61.2192 71.6332 59.4122L71.7759 59.2973Z" fill="#F4868E"/>
<path d="M88.0294 50.2203C90.4 49.4264 93.407 51.2021 93.6485 53.5837C93.9338 55.6205 92.0572 58.1169 89.8183 58.0751C85.4723 58.1796 83.2774 51.7662 87.8319 50.283L88.0294 50.2203Z" fill="#E2C6A8"/>
<path d="M87.9965 51.7976C91.3767 49.7086 92.9242 53.6987 91.3657 55.7877C90.9048 56.404 90.0927 56.7696 89.3025 56.686C87.1515 56.4458 85.9662 53.4584 87.8539 51.9125L87.9965 51.7976Z" fill="#F4868E"/>
<path d="M88.7538 19.7098C91.1243 18.9159 94.1314 20.6916 94.3728 23.0731C94.6582 25.1099 92.7815 27.6064 90.5426 27.5646C86.1966 27.669 84.0017 21.2556 88.5562 19.7724L88.7538 19.7098Z" fill="#E2C6A8"/>
<path d="M88.7208 21.2868C92.101 19.1978 93.6485 23.1878 92.09 25.2769C91.6291 25.8932 90.817 26.2587 90.0268 26.1752C87.8758 25.9349 86.6905 22.9476 88.5782 21.4017L88.7208 21.2868Z" fill="#F4868E"/>
<path d="M79.7216 4.72077C82.0921 3.92693 85.0992 5.70262 85.3406 8.08414C85.626 10.121 83.7493 12.6174 81.5105 12.5756C77.1645 12.68 74.9695 6.26666 79.524 4.78344L79.7216 4.72077Z" fill="#E2C6A8"/>
<path d="M79.6997 6.2981C83.0799 4.20905 84.6273 8.19913 83.0689 10.2882C82.6079 10.9044 81.7958 11.27 81.0057 11.1865C78.8546 10.9462 77.6693 7.95889 79.557 6.41299L79.6997 6.2981Z" fill="#F4868E"/>
<path d="M63.5668 0.636729C65.9374 -0.157109 68.9444 1.61858 69.1859 4.0001C69.4712 6.03692 67.5946 8.53333 65.3557 8.49155C61.0097 8.596 58.8148 2.18263 63.3693 0.699406L63.5668 0.636729Z" fill="#E2C6A8"/>
<path d="M63.5449 2.20353C66.9251 0.11448 68.4725 4.10456 66.9141 6.19361C66.4532 6.80988 65.6411 7.17546 64.8509 7.0919C62.6998 6.85166 61.5146 3.86432 63.4022 2.31843L63.5449 2.20353Z" fill="#F4868E"/>
<path d="M12.8307 136.362C13.6099 136.519 15.6073 137.344 16.584 137.73C16.6609 137.762 16.7377 137.793 16.8035 137.835C17.8681 138.409 18.9326 139.621 19.2948 140.686C19.3606 140.874 19.3826 141.083 19.3496 141.282C19.1631 142.796 17.8571 144.52 16.2219 144.603C14.1257 144.865 12.1063 143.632 11.4917 141.731C10.7564 140.07 10.6906 136.958 12.699 136.362H12.8307Z" fill="#E2C6A8"/>
<path d="M12.8307 137.95C13.2917 137.804 14.2355 138.19 14.861 138.284C15.5963 138.503 16.628 138.503 17.0121 139.067C17.6267 140.028 17.6925 140.958 17.6596 142.232C17.6816 142.817 17.5279 143.319 16.8475 143.413C16.4963 143.486 16.0792 143.59 15.7171 143.653C15.2232 143.737 14.6964 143.643 14.3123 143.329C13.9282 143.016 13.577 142.577 13.2148 142.264C12.6661 141.689 12.2161 140.791 12.0186 140.049C11.9747 139.882 11.9527 139.726 11.9747 139.558C12.0515 139.036 12.4247 138.409 12.7539 138.023L12.8527 137.96L12.8307 137.95Z" fill="#F4868E"/>
<path d="M10.965 172.2C11.7771 172.357 13.8952 173.255 14.8281 173.62C16.0243 174.226 17.2535 175.657 17.5059 176.817C17.473 178.394 16.1012 180.347 14.3562 180.441C12.26 180.702 10.2407 179.47 9.62608 177.569C8.89078 175.908 8.82494 172.795 10.8333 172.2H10.965Z" fill="#E2C6A8"/>
<path d="M10.965 173.787C11.4259 173.641 12.3698 174.028 12.9953 174.122C13.7306 174.341 14.7622 174.341 15.1464 174.905C15.7609 175.866 15.8268 176.796 15.7939 178.07C15.8158 178.655 15.6622 179.156 14.9817 179.25C14.3781 179.376 13.6099 179.585 13.1819 179.532C12.4466 179.397 11.9198 178.592 11.3381 178.091C10.7235 177.454 10.2516 176.42 10.087 175.636C10.0541 175.072 10.4931 174.299 10.8772 173.85L10.9759 173.787H10.965Z" fill="#F4868E"/>
<path d="M20.8093 185.946C21.6214 186.102 23.7396 187.001 24.6724 187.366C25.8687 187.972 27.0978 189.403 27.3502 190.562C27.3173 192.14 25.9455 194.093 24.2005 194.187C22.1043 194.448 20.085 193.216 19.4704 191.315C18.7351 189.654 18.6693 186.541 20.6776 185.946H20.8093Z" fill="#E2C6A8"/>
<path d="M20.8093 187.533C21.2703 187.387 22.2141 187.774 22.8397 187.868C23.575 188.087 24.6066 188.087 24.9907 188.651C25.6053 189.612 25.6711 190.542 25.6382 191.816C25.6602 192.401 25.5065 192.902 24.8261 192.996C24.2225 193.122 23.4542 193.33 23.0262 193.278C22.2909 193.142 21.7641 192.338 21.1825 191.837C20.5679 191.2 20.096 190.166 19.9313 189.382C19.8984 188.818 20.3374 188.045 20.7215 187.596L20.8203 187.533H20.8093Z" fill="#F4868E"/>
<path d="M47.2364 182.739C48.0485 182.896 50.1666 183.794 51.0995 184.16C52.2957 184.765 53.5249 186.196 53.7773 187.356C53.7444 188.933 52.3725 190.886 50.6275 190.98C48.5314 191.241 46.512 190.009 45.8974 188.108C45.1621 186.447 45.0963 183.334 47.1047 182.739H47.2364Z" fill="#E2C6A8"/>
<path d="M47.2474 184.327C47.7083 184.18 48.6522 184.567 49.2777 184.661C50.013 184.88 51.0446 184.88 51.4287 185.444C52.0433 186.405 52.1092 187.335 52.0763 188.609C52.0982 189.194 51.9446 189.695 51.2641 189.79C50.6605 189.915 49.8923 190.124 49.4643 190.072C48.729 189.936 48.2022 189.131 47.6205 188.63C47.0059 187.993 46.534 186.959 46.3694 186.175C46.3365 185.611 46.7755 184.838 47.1596 184.389L47.2584 184.327H47.2474Z" fill="#F4868E"/>
<path d="M27.1198 126.46C28.777 125.614 31.0378 125.436 32.5962 126.429C35.1862 128.037 33.4961 130.743 30.8731 131.641C26.3845 133.573 22.1921 129.416 26.9332 126.554L27.1307 126.45L27.1198 126.46Z" fill="#E2C6A8"/>
<path d="M30.0939 126.94C32.5083 127.17 32.9803 128.549 30.7195 129.99C29.7208 130.92 28.8867 131.077 27.3502 130.805C25.5174 130.659 25.0785 128.946 26.6369 128.069C27.6246 127.296 28.6233 126.732 29.8854 126.93L30.0939 126.951V126.94Z" fill="#F58880"/>
<path d="M23.531 144.374C25.1882 143.528 27.449 143.35 29.0074 144.342C31.5974 145.951 29.9073 148.656 27.2844 149.555C22.7957 151.487 18.6034 147.33 23.3444 144.468L23.542 144.363L23.531 144.374Z" fill="#E2C6A8"/>
<path d="M26.5052 144.854C28.9196 145.084 29.3915 146.463 27.1307 147.904C26.132 148.834 25.298 148.99 23.7615 148.719C21.9287 148.573 21.4897 146.86 23.0481 145.982C24.0359 145.209 25.0346 144.645 26.2967 144.844L26.5052 144.865V144.854Z" fill="#F4868E"/>
<path d="M40.8601 165.577C42.5173 164.731 44.7781 164.554 46.3365 165.546C48.9265 167.155 47.2364 169.86 44.6135 170.758C40.1248 172.691 35.9325 168.533 40.6735 165.671L40.8711 165.567L40.8601 165.577Z" fill="#E2C6A8"/>
<path d="M43.8342 166.058C46.2486 166.288 46.7206 167.666 44.4598 169.108C43.4611 170.038 42.627 170.194 41.0905 169.923C39.2577 169.776 38.8188 168.063 40.3772 167.186C41.3649 166.413 42.3636 165.849 43.6257 166.047L43.8342 166.068V166.058Z" fill="#F4868E"/>
<path d="M4.7094 154.359C6.36658 153.513 8.6274 153.336 10.1858 154.328C12.7758 155.936 11.0857 158.642 8.46277 159.54C3.97411 161.472 -0.218228 157.315 4.52285 154.453L4.72039 154.349L4.7094 154.359Z" fill="#E2C6A8"/>
<path d="M7.68351 154.84C10.098 155.07 10.5699 156.448 8.30908 157.89C7.31038 158.819 6.4763 158.976 4.93984 158.704C3.10706 158.558 2.66808 156.845 4.22649 155.968C5.21421 155.195 6.21293 154.631 7.47503 154.829L7.68351 154.85V154.84Z" fill="#F4868E"/>
<path d="M12.6989 146.39C14.7512 145.481 18.2192 146.494 19.5252 148.322C21.5336 152.542 15.1134 152.479 12.3477 152.396C10.3503 152.343 8.75902 150.578 10.4052 148.729C11.0088 147.956 11.7112 146.902 12.5343 146.484L12.6989 146.4V146.39Z" fill="#E2C6A8"/>
<path d="M11.3381 150.025C11.6893 148.761 12.7209 147.455 14.1915 147.351C16.2987 147.131 18.8229 148.688 17.3852 150.672C16.5731 151.445 15.0476 151.487 13.8074 151.633C12.5014 151.779 10.8552 151.8 11.2832 150.213L11.3271 150.035L11.3381 150.025Z" fill="#F4868E"/>
<path d="M21.1386 164.794C22.0934 165.066 23.5969 165.954 24.1786 166.82C24.8261 167.99 25.6053 169.682 24.87 170.884C23.8822 173.025 21.5556 174.654 19.0644 173.829C15.7829 173.317 14.5208 169.609 16.0573 167.082C16.4523 166.277 17.2535 165.995 18.4936 165.515C19.3168 165.212 20.4033 164.69 20.9739 164.773L21.1386 164.794Z" fill="#E2C6A8"/>
<path d="M18.3948 166.925C19.7008 166.706 22.225 166.873 23.2237 167.875C23.6188 168.481 23.9261 169.202 23.52 169.881C23.0481 170.894 22.2799 171.594 21.0946 171.845C20.3922 172.033 19.5472 172.054 18.7899 171.949C17.5608 171.573 16.5621 169.818 16.8035 168.628C16.9023 168.001 17.5717 167.322 18.2192 166.988L18.3838 166.925H18.3948Z" fill="#F4868E"/>
<path d="M29.9841 151.612C30.9389 151.884 32.4425 152.772 33.0242 153.638C33.6717 154.808 34.4508 156.5 33.7155 157.702C32.7278 159.843 30.4012 161.472 27.9099 160.647C24.6285 160.135 23.3664 156.427 24.9028 153.9C25.2979 153.095 26.0991 152.813 27.3392 152.333C28.1623 152.03 29.2488 151.508 29.8195 151.591L29.9841 151.612Z" fill="#E2C6A8"/>
<path d="M27.2296 153.732C28.5356 153.513 31.0598 153.68 32.0585 154.683C32.4535 155.289 32.7608 156.01 32.3548 156.689C31.8828 157.702 31.1146 158.402 29.9294 158.652C29.227 158.84 28.3819 158.861 27.6247 158.757C26.3955 158.381 25.3968 156.626 25.6382 155.435C25.737 154.808 26.4065 154.129 27.054 153.795L27.2186 153.732H27.2296Z" fill="#F4868E"/>
<path d="M37.8201 132.644C38.7749 132.915 40.2784 133.803 40.8601 134.67C41.5076 135.84 42.2868 137.532 41.5515 138.733C40.5638 140.874 38.2371 142.504 35.7459 141.679C32.4644 141.167 31.2024 137.459 32.7388 134.931C33.1339 134.127 33.9351 133.845 35.1752 133.364C35.9983 133.061 37.0848 132.539 37.6555 132.623L37.8201 132.644Z" fill="#E2C6A8"/>
<path d="M35.0765 134.764C36.3825 134.545 38.9066 134.712 39.9053 135.714C40.3004 136.32 40.6077 137.041 40.2016 137.72C39.7297 138.733 38.9615 139.433 37.7762 139.684C37.0738 139.872 36.2288 139.893 35.4715 139.788C34.2424 139.412 33.2437 137.657 33.4851 136.466C33.5839 135.84 34.2534 135.161 34.9009 134.827L35.0655 134.764H35.0765Z" fill="#F4868E"/>
<path d="M42.0673 121.728C43.0221 122 44.5257 122.888 45.1073 123.755C45.7548 124.925 46.534 126.617 45.7987 127.818C44.811 129.959 42.4844 131.589 39.9931 130.763C36.7117 130.252 35.4496 126.544 36.986 124.016C37.3811 123.212 38.1823 122.929 39.4224 122.449C40.2455 122.146 41.332 121.624 41.9027 121.707L42.0673 121.728Z" fill="#E2C6A8"/>
<path d="M39.3126 123.859C40.6186 123.64 43.1428 123.807 44.1415 124.81C44.5366 125.416 44.8439 126.136 44.4378 126.815C43.9659 127.828 43.1977 128.528 42.0124 128.779C41.3101 128.967 40.465 128.988 39.7077 128.883C38.4786 128.507 37.4799 126.753 37.7213 125.562C37.8201 124.935 38.4895 124.256 39.137 123.922L39.3017 123.859H39.3126Z" fill="#F4868E"/>
<path d="M29.0623 162.548C31.7291 162.716 34.7801 162.381 34.813 164.429C35.0764 166.194 33.54 170.549 31.0158 170.602C26.2967 170.153 24.6614 160.992 28.8648 162.548C28.9306 162.548 28.9964 162.548 29.0623 162.548Z" fill="#E2C6A8"/>
<path d="M29.0294 164.115C33.2437 162.319 34.6594 166.027 31.7731 168.962C28.6014 170.414 26.6369 164.825 28.8867 164.188C28.9306 164.167 28.9855 164.146 29.0294 164.115Z" fill="#F4868E"/>
<path d="M42.8465 203.535C45.5133 203.703 48.5643 203.368 48.5972 205.416C48.8606 207.181 47.3241 211.537 44.8 211.589C40.0808 211.14 38.4456 201.979 42.6489 203.535C42.7148 203.535 42.7806 203.535 42.8465 203.535Z" fill="#E2C6A8"/>
<path d="M42.8245 205.102C47.0388 203.306 48.4545 207.014 45.5682 209.949C42.3965 211.401 40.432 205.813 42.6818 205.175C42.7257 205.154 42.7806 205.134 42.8245 205.102Z" fill="#F4868E"/>
<path d="M7.68354 162.924C10.0541 162.13 13.0612 163.906 13.3026 166.288C13.588 168.324 11.7113 170.821 9.47242 170.779C5.12644 170.884 2.9315 164.47 7.486 162.987L7.68354 162.924Z" fill="#E2C6A8"/>
<path d="M7.65058 164.502C11.5027 162.12 12.9733 167.635 10.1748 169.233C7.31038 170.246 5.29104 166.423 7.50794 164.616L7.65058 164.502Z" fill="#F4868E"/>
<path d="M16.3426 154.996C18.7131 154.203 21.7202 155.978 21.9616 158.36C22.247 160.397 20.3703 162.893 18.1315 162.851C13.7855 162.956 11.5906 156.542 16.1451 155.059L16.3426 154.996Z" fill="#E2C6A8"/>
<path d="M16.3097 156.563C20.1618 154.182 21.6324 159.697 18.8338 161.295C15.9694 162.308 13.9501 158.485 16.167 156.678L16.3097 156.563Z" fill="#F4868E"/>
<path d="M23.8822 134.022C26.2527 133.229 29.2598 135.004 29.5012 137.386C29.7866 139.423 27.9099 141.919 25.6711 141.877C21.3251 141.982 19.1301 135.568 23.6847 134.085L23.8822 134.022Z" fill="#E2C6A8"/>
<path d="M23.5529 135.6C27.405 133.218 28.8756 138.733 26.0771 140.331C23.2127 141.345 21.1933 137.522 23.4102 135.715L23.5529 135.6Z" fill="#F4868E"/>
<path d="M35.5044 144.551C37.875 143.757 40.882 145.533 41.1235 147.914C41.4088 149.951 39.5322 152.448 37.2933 152.406C32.9473 152.51 30.7524 146.097 35.3069 144.614L35.5044 144.551Z" fill="#E2C6A8"/>
<path d="M35.4715 146.128C39.3236 143.747 40.7943 149.262 37.9957 150.86C35.1313 151.873 33.112 148.05 35.3288 146.243L35.4715 146.128Z" fill="#F4868E"/>
<path d="M38.9176 154.986C41.2881 154.192 44.2952 155.968 44.5366 158.349C44.822 160.386 42.9453 162.883 40.7065 162.841C36.3605 162.945 34.1655 156.532 38.7201 155.049L38.9176 154.986Z" fill="#E2C6A8"/>
<path d="M38.8846 156.553C42.7368 154.171 44.2074 159.686 41.4088 161.284C38.5444 162.298 36.5251 158.475 38.742 156.668L38.8846 156.553Z" fill="#F58880"/>
<path d="M28.0636 198.835C30.4341 198.041 33.4412 199.817 33.6826 202.198C33.9679 204.235 32.0913 206.732 29.8524 206.69C25.5065 206.794 23.3115 200.381 27.866 198.898L28.0636 198.835Z" fill="#E2C6A8"/>
<path d="M28.0307 200.412C31.6084 198.208 33.1339 202.804 31.0926 204.747C30.7634 205.06 30.3244 205.259 29.8635 205.301C27.3942 205.53 25.8577 202.188 27.888 200.527L28.0307 200.412Z" fill="#F4868E"/>
<path d="M37.6445 171.876C40.0151 171.082 43.0221 172.858 43.2636 175.239C43.5489 177.276 41.6723 179.773 39.4334 179.731C35.0874 179.835 32.8925 173.422 37.447 171.939L37.6445 171.876Z" fill="#E2C6A8"/>
<path d="M37.6116 173.453C41.4637 171.072 42.9343 176.587 40.1358 178.185C37.2714 179.198 35.252 175.375 37.4689 173.568L37.6116 173.453Z" fill="#F4868E"/>
<path d="M21.0068 176.639C23.3773 175.845 26.3844 177.621 26.6259 180.002C26.9112 182.039 25.0345 184.535 22.7957 184.494C18.4497 184.598 16.2548 178.185 20.8093 176.702L21.0068 176.639Z" fill="#E2C6A8"/>
<path d="M20.9739 178.216C24.826 175.835 26.2966 181.35 23.4981 182.948C20.6337 183.961 18.6143 180.138 20.8312 178.331L20.9739 178.216Z" fill="#F4868E"/>
<path d="M27.2514 171.26C28.0636 171.416 30.1817 172.315 31.1145 172.68C32.3108 173.286 33.54 174.717 33.7924 175.877C33.7594 177.454 32.3876 179.407 30.6426 179.501C28.5465 179.762 26.5271 178.53 25.9125 176.629C25.1772 174.968 25.1114 171.855 27.1198 171.26H27.2514Z" fill="#E2C6A8"/>
<path d="M27.2514 172.847C27.7124 172.701 28.6562 173.088 29.2817 173.182C30.017 173.401 31.0487 173.401 31.4328 173.965C32.0474 174.926 32.1132 175.856 32.0803 177.13C32.1022 177.715 31.9486 178.216 31.2682 178.31C30.6646 178.435 29.8963 178.644 29.4683 178.592C28.733 178.456 28.2062 177.652 27.6245 177.151C27.01 176.514 26.5381 175.479 26.3734 174.696C26.3405 174.132 26.7795 173.359 27.1636 172.91L27.2624 172.847H27.2514Z" fill="#F4868E"/>
<path d="M27.5148 183.198C29.172 182.352 31.4328 182.175 32.9912 183.167C35.5812 184.776 33.8911 187.481 31.2682 188.379C26.7795 190.312 22.5872 186.154 27.3283 183.292L27.5258 183.188L27.5148 183.198Z" fill="#E2C6A8"/>
<path d="M30.4891 183.679C32.9035 183.909 33.3754 185.288 31.1146 186.729C30.1159 187.659 29.2818 187.815 27.7454 187.544C25.9126 187.397 25.4736 185.684 27.032 184.807C28.0197 184.034 29.0184 183.47 30.2805 183.668L30.4891 183.689V183.679Z" fill="#F4868E"/>
<path d="M45.5793 192.463C46.5341 192.735 48.0376 193.623 48.6193 194.49C49.2668 195.66 50.046 197.352 49.3107 198.553C48.3229 200.694 45.9963 202.324 43.505 201.499C40.2236 200.987 38.9615 197.279 40.498 194.751C40.8931 193.947 41.6942 193.665 42.9344 193.184C43.7575 192.881 44.8439 192.359 45.4146 192.443L45.5793 192.463Z" fill="#E2C6A8"/>
<path d="M42.8356 194.594C44.1415 194.375 46.6657 194.542 47.6644 195.545C48.0595 196.15 48.3668 196.871 47.9607 197.55C47.4888 198.563 46.7206 199.263 45.5353 199.514C44.8329 199.702 43.9879 199.723 43.2306 199.618C42.0015 199.242 41.0028 197.487 41.2442 196.297C41.343 195.67 42.0124 194.991 42.66 194.657L42.8246 194.594H42.8356Z" fill="#F4868E"/>
<path d="M40.7065 181.078C41.6613 181.35 43.1648 182.238 43.7465 183.105C44.394 184.274 45.1732 185.967 44.4379 187.168C43.4501 189.309 41.1235 190.939 38.6322 190.113C35.3508 189.602 34.0887 185.893 35.6252 183.366C36.0203 182.561 36.8214 182.279 38.0616 181.799C38.8847 181.496 39.9711 180.974 40.5418 181.057L40.7065 181.078Z" fill="#E2C6A8"/>
<path d="M37.9518 183.209C39.2578 182.99 41.782 183.157 42.7807 184.16C43.1758 184.765 43.4831 185.486 43.077 186.165C42.6051 187.178 41.8369 187.878 40.6516 188.129C39.9492 188.317 39.1042 188.338 38.3469 188.233C37.1177 187.857 36.119 186.102 36.3605 184.912C36.4593 184.285 37.1287 183.606 37.7762 183.272L37.9409 183.209H37.9518Z" fill="#F4868E"/>
<path d="M11.7442 182.76C14.411 182.927 17.462 182.593 17.4949 184.64C17.7583 186.405 16.2219 190.761 13.6977 190.813C8.97854 190.364 7.34332 181.204 11.5466 182.76C11.6125 182.76 11.6783 182.76 11.7442 182.76Z" fill="#E2C6A8"/>
<path d="M11.7112 184.327C15.9255 182.53 17.3413 186.238 14.4549 189.173C11.2832 190.625 9.31875 185.037 11.5686 184.4C11.6125 184.379 11.6673 184.358 11.7112 184.327Z" fill="#F4868E"/>
<path d="M32.7607 189.539C35.1312 188.745 38.1383 190.521 38.3797 192.902C38.6651 194.939 36.7884 197.436 34.5496 197.394C30.2036 197.498 28.0086 191.085 32.5632 189.602L32.7607 189.539Z" fill="#E2C6A8"/>
<path d="M32.7278 191.106C36.5799 188.724 38.0506 194.239 35.252 195.837C32.3876 196.85 30.3683 193.028 32.5851 191.221L32.7278 191.106Z" fill="#F4868E"/>
<path d="M47.1486 173.464C49.5192 172.67 52.5262 174.445 52.7677 176.827C53.053 178.864 51.1763 181.36 48.9375 181.318C44.5915 181.423 42.3966 175.01 46.9511 173.526L47.1486 173.464Z" fill="#E2C6A8"/>
<path d="M47.1266 175.041C50.9788 172.659 52.4494 178.174 49.6508 179.773C46.7864 180.786 44.7671 176.963 46.984 175.156L47.1266 175.041Z" fill="#F4868E"/>
<path d="M17.89 194.417C20.2606 193.623 23.2676 195.399 23.5091 197.78C23.7944 199.817 21.9178 202.313 19.6789 202.272C15.3329 202.376 13.138 195.963 17.6925 194.479L17.89 194.417Z" fill="#E2C6A8"/>
<path d="M17.8682 195.983C21.7203 193.602 23.1909 199.117 20.3923 200.715C17.5279 201.728 15.5086 197.905 17.7255 196.098L17.8682 195.983Z" fill="#F4868E"/>
<path d="M122.446 123.17C124.817 122.376 127.824 124.152 128.065 126.533C128.361 128.57 126.474 131.066 124.246 131.025C119.9 131.129 117.705 124.716 122.26 123.232L122.446 123.17Z" fill="#E2C6A8"/>
<path d="M122.457 124.841C126.309 122.459 127.78 127.985 124.981 129.573C122.117 130.586 120.098 126.773 122.314 124.956L122.457 124.841Z" fill="#F4868E"/>
<path d="M127.176 132.226C127.989 132.383 130.107 133.281 131.04 133.646C132.236 134.252 133.476 135.683 133.717 136.843C133.684 138.42 132.313 140.373 130.568 140.467C128.471 140.728 126.452 139.496 125.837 137.595C125.102 135.934 125.036 132.821 127.045 132.226H127.176Z" fill="#E2C6A8"/>
<path d="M127.187 133.814C127.648 133.667 128.592 134.054 129.218 134.148C129.942 134.367 130.984 134.367 131.369 134.931C131.983 135.892 132.049 136.822 132.016 138.096C132.038 138.681 131.884 139.182 131.204 139.276C130.6 139.402 129.821 139.611 129.404 139.559C128.669 139.423 128.142 138.618 127.56 138.117C126.946 137.48 126.474 136.446 126.309 135.662C126.276 135.098 126.715 134.325 127.099 133.876L127.198 133.814H127.187Z" fill="#F4868E"/>
<path d="M126.957 105.246C129.327 104.452 132.334 106.228 132.576 108.609C132.872 110.646 130.985 113.142 128.757 113.101C124.411 113.205 122.216 106.792 126.77 105.308L126.957 105.246Z" fill="#E2C6A8"/>
<path d="M126.979 106.917C130.831 104.536 132.302 110.061 129.503 111.649C126.639 112.662 124.619 108.849 126.836 107.032L126.979 106.917Z" fill="#F4868E"/>
<path d="M136.472 123.003C137.426 123.274 138.93 124.162 139.512 125.019C140.159 126.189 140.938 127.881 140.203 129.082C139.215 131.223 136.889 132.853 134.397 132.027C131.116 131.516 129.854 127.808 131.39 125.28C131.785 124.476 132.587 124.193 133.827 123.713C134.65 123.41 135.736 122.888 136.307 122.971L136.472 122.992V123.003Z" fill="#E2C6A8"/>
<path d="M133.717 125.134C135.023 124.914 137.547 125.081 138.546 126.084C138.941 126.69 139.248 127.411 138.842 128.1C138.37 129.124 137.602 129.813 136.417 130.064C135.715 130.252 134.869 130.262 134.112 130.168C132.883 129.792 131.884 128.037 132.126 126.847C132.225 126.22 132.894 125.541 133.542 125.207L133.706 125.144L133.717 125.134Z" fill="#F4868E"/>
<path d="M113.063 102.896C112.81 101.35 115.126 98.4251 116.63 97.2761C118.221 95.7824 119.944 94.4663 120.8 95.1975C122.303 96.6912 119.867 100.316 119.944 100.88C120.021 101.444 115.916 102.739 113.985 103.272C113.6 103.345 113.227 103.105 113.107 102.958L113.063 102.885V102.896Z" fill="#F3D4B3"/>
<path d="M120.119 97.1925C117.979 95.4691 113.732 103.282 115.181 102.927C115.982 102.728 117.376 102.217 118.484 101.788C119.252 101.496 119.044 100.211 119.362 99.3129C119.691 98.3624 120.515 97.7983 120.207 97.297L120.119 97.1821V97.1925Z" fill="#F4868E"/>
<path d="M113.063 155.895C113.162 157.044 113.216 159.049 114.061 159.916C115.444 161.577 117.903 162.454 119.955 161.671C120.548 161.441 120.438 161.117 120.46 160.386C120.449 158.778 120.482 156.407 120.438 154.923C120.471 154.224 119.549 154.464 118.868 154.61C117.31 154.996 114.314 155.279 113.085 155.822L113.052 155.905L113.063 155.895Z" fill="#F3D4B3"/>
<path d="M118.287 154.735C118.594 155.028 118.748 156.198 118.857 156.803C119.088 157.785 119.132 159.06 118.561 159.728C117.859 160.846 116.202 159.697 115.51 158.997C114.808 158.297 114.555 157.232 114.83 156.459L115.049 155.278" fill="#F4868E"/>
<path d="M128.469 114.691C132.542 112.932 138.352 111.935 142.576 110.634C147.138 109.281 151.667 108.295 156.38 108.061C156.912 108.031 157.455 108.02 157.998 108.01C158.954 108 159.909 108.02 160.887 108.081C165.122 108.376 169.684 107.044 171.465 110.318C172.583 112.698 172.095 116.033 168.598 116.165C164.992 116.49 159.899 116.236 156.434 116.318C148.267 116.236 139.959 119.907 131.64 120.934C127.752 121.605 125.341 116.999 128.36 114.762L128.48 114.691H128.469Z" fill="#F8C2D9"/>
<path d="M165.188 108.661C166.339 108.132 168.131 108.142 169.423 108.397C170.574 108.671 171.964 110.115 171.975 111.661C171.932 112.799 172.225 115.016 170.075 115.85C167.924 116.684 163.504 115.352 163.092 112.728C162.961 111.915 163.2 109.83 164.047 109.2L165.188 108.661Z" fill="#F4868E"/>
<path d="M158.291 108C158.291 108 157.542 111.122 157.564 112.159C157.585 113.196 158.389 116.297 158.389 116.297H157.412C157.412 116.297 156.64 113.196 156.619 112.159C156.597 111.122 157.509 108.02 157.509 108.02L158.302 108H158.291Z" fill="#EE3758"/>
<path d="M150.483 108.732C150.483 108.732 149.722 111.945 149.744 112.982C149.766 114.02 150.494 116.826 150.494 116.826L149.56 116.989C149.56 116.989 148.821 114.02 148.799 112.982C148.778 111.945 149.668 108.885 149.668 108.885L150.494 108.732H150.483Z" fill="#EE3758"/>
<path d="M142.598 110.634C142.598 110.634 141.849 113.755 141.87 114.792C141.892 115.83 142.609 118.585 142.609 118.585L141.686 118.819C141.686 118.819 140.947 115.83 140.915 114.792C140.882 113.755 141.729 110.878 141.729 110.878L142.587 110.623L142.598 110.634Z" fill="#EE3758"/>
</g>
</svg>
