<svg width="149" height="276" viewBox="0 0 149 276" fill="none" xmlns="http://www.w3.org/2000/svg">
<path id="Perimysium" d="M147.85 162.08C146.21 176.19 143.29 191.24 140.18 205.16C137.97 215.04 134.97 224.6 130.72 233.91C127.78 240.44 124.36 246.71 120.48 252.68C116.96 258.07 113.71 262.72 109.04 266.68C104.74 270.15 100.25 273.96 94.6401 274.94C84.6301 276.07 74.3701 272.31 66.7601 265.7C64.4201 263.71 62.29 261.2 60.12 259.16C56.89 256.06 53.76 255.02 49.25 253.49C45.29 252.18 40.84 250.16 37.24 247.74C30.39 243.4 25.3301 236.74 20.4501 230.82C14.1601 223.38 8.92004 214.72 5.43004 205.55C-1.76996 188.09 -0.539947 170.04 5.04005 152.18C9.57005 140.21 6.44005 136.67 2.54005 125.03C-0.569947 115.11 -0.36997 104.75 1.86003 94.71C5.00003 79.6 8.34003 63.87 12.99 49.3C15.93 40.63 22.29 32.9 29.49 27.24C33.97 23.68 37.34 19.69 41.5 15.72C46.96 10.65 53.84 6.35996 60.72 3.61996C66.25 1.47996 70.66 0.269961 76.19 0.209961C88.47 0.429961 100.92 6.89997 109.28 15.8C129.23 36.14 130.65 48.29 138.83 74.08C142.14 85.67 145.21 98.93 147.71 110.21C148.28 113.72 148.15 116.2 148.18 120.13C147.96 132.91 148.61 149.44 147.87 161.95V162.1L147.85 162.08Z" fill="#E6F5FF"/>
</svg>
