<svg width="149" height="162" viewBox="0 0 149 162" fill="none" xmlns="http://www.w3.org/2000/svg">
<g id="Tendon" opacity="0.59">
<path d="M137.82 80.19C127.33 74.96 116.84 63.64 111.35 53.15C106.66 43.97 111.39 31.36 113.95 21.91C115.89 15.64 118.74 7.85001 120.86 2.57001C121.4 1.09001 121.01 0.8 120.59 0.75C108.29 11.69 74.17 43.68 56.5 55.13C43.89 62.85 22.66 70.47 10.98 75.09C8.36998 76.09 6.50998 76.75 5.68998 77.09C5.21998 77.34 4.95998 77.7 4.67998 78.22C-2.09808e-05 86.47 -0.770021 97.54 0.929979 107.06C2.18998 114.91 4.74998 121.14 6.89998 125.31C7.57998 126.62 8.44998 127.72 9.52998 128.73C16.84 134.77 25.9 146.38 29.85 156.42C30.83 158.63 31.6 161.12 32.05 161.62C32.49 162.15 32.97 160.93 34.03 159.44C42.21 147.42 50.22 134.34 59.12 123.87C61.18 121.35 63.52 118.96 66 116.62C67.57 115.13 69.2 113.65 70.85 112.17C73.08 110.18 74.6 108.6 76.85 107.23C78.02 106.47 79.23 105.7 80.44 104.93C83.56 102.95 86.77 100.98 89.74 99.23C91.93 97.96 93.94 96.74 95.96 95.6C99.44 93.62 102.9 91.85 107.21 90.33C108.76 89.8 110.35 89.23 111.94 88.67C114.68 87.71 117.44 86.78 120.08 86.13C122.05 85.72 125.82 84.89 129.53 84.21C131.98 83.76 134.41 83.38 136.27 83.24C140.09 82.87 144.8 83.06 148.6 82.74C146.79 82.21 140.65 81.47 137.98 80.27L137.83 80.21L137.82 80.19Z" fill="#E6E7E8"/>
<path d="M6.96998 104.93C10.18 102.84 14.2 100.15 17.65 97.88C29.97 89.71 42.02 81.77 54.42 73.61C60.34 69.62 65.22 66.3 71.99 64.67C79.41 62.48 93.65 58.3 102.45 55.71C105.97 54.66 108.52 53.98 109.87 52.79C110.18 52.5 110.43 52.19 110.63 51.85C107.36 43.31 111.09 32.32 113.55 23.61C113.72 23.05 113.73 22.93 113.92 22.33C112.74 19.87 105.8 24.79 103.44 26.26C92.19 34.41 78.05 45.36 67.14 52.79C57.98 58.65 47.44 65.26 38.04 71.21C30.24 76.35 23.91 78.94 15.73 82.84C10.71 85.48 3.78998 87.4 0.869976 92.12L0.799976 92.25C0.619976 92.56 0.469979 92.89 0.329979 93.24C-0.120021 97.93 0.109976 102.74 0.889976 107.21C2.18998 107.87 4.26998 106.7 6.96998 104.94V104.93Z" fill="#C29C93"/>
<path d="M112.8 72.34C111.89 72.17 111.02 72.5 110.09 72.74C104.3 74.52 92.21 77.9 85.43 80.12C81.25 82.13 76.31 85.42 71.98 87.83C69.47 89.26 67.53 90.74 65.44 92.86C61.99 96.25 56.78 101.84 54.68 104.13C53.33 105.57 52.56 106.79 51.54 108.6C50.03 111.25 47.15 116.27 45.67 118.9C44.15 121.51 44.97 121.59 47.99 121.13C51.3 120.64 55.1 120.09 58.45 119.57C61.55 119.1 62.03 118.79 64.34 117.02C67.28 114.78 70.25 112.52 73.24 110.24C77.41 107.18 81.38 103.8 85.45 101.13C89.6 98.88 96.65 95.32 101.88 92.6C104.38 91.27 106.26 90.37 108.89 89.65C113.33 88.38 119.48 86.32 124.31 85.24C126.57 84.73 129.36 84.37 129.14 83.5C128.97 83.03 128.28 82.51 127.75 82.14C124.69 80.04 118.37 75.76 115.39 73.73C114.59 73.2 113.74 72.6 112.87 72.37L112.78 72.35L112.8 72.34Z" fill="#6D6E71"/>
</g>
</svg>
